<svg width="432.32736" height="432.32736" version="1.1" viewBox="0 0 432.32736 432.32735" xmlns="http://www.w3.org/2000/svg">
 <path d="m80.998924 370.12939c41.038966 4.79885 47.391236-14.57299 65.377916-23.43778 9.95327-4.9055 22.10164-9.36886 26.3097-6.73075 12.48799 7.82893 0 0-7.34852 8.00752-20.85837 22.72891 17.90691 32.61769 47.24005 8.22469 8.79271-7.31188 33.14397-20.03893 38.18916-15.02192 6.24416 6.20929-2.65958-3.22687-11.55301 7.15199-21.89632 25.5536 19.9639 28.11937 44.12348 10.61682 11.2067-8.11876 27.07436-22.46592 34.1713-14.76132l37.30554 21.0999s4.64028 3.85031 2.86733 7.20861c-1.77296 3.35829-6.64312 3.76628-6.64312 3.76628h-270.83607z" style="fill:#fff"/>
 <path d="m221.14453 56.847656c-.56386.03269-3.03744 7.562692-4.33008 12.431641-1.25102 4.712225-10.60897 38.295333-14.67968 59.179683.34362-10.26159.3955-21.90884-1.57032-15.17968-1.73143 5.92682-3.625-35.125003-5.25-26.000003-.9298 5.221157-5.65917-13.502259-9-21.5-3.72858-8.925999 5.57214 25.920054 11.18164 58.365233-2.00912-7.8723-6.51769-20.63705-16.43164-33.865233-8.86757-11.832005-18.98539-16.412952-33.32226-18.720703-13.87861-2.233986-26.1425.667549-15.22852.279297 6.97021-.247957 14.73606 1.985428 20.38477 4.101562 8.3624 3.132743 13.73755 7.652208 8.99023 7.222656-7.13817-.645884 19.37538 10.145275 11.80078 10.867188-4.1963.399937 20.83399 18.917633 12.52149 15.962893-2.04676-.72754-.29288 4.27342 2.33594 10.14258-10.54213-11.91027-17.38316-22.810742-35.73243-26.855473-17.00057-3.747436-24.31275-1.34643-36.5 3.25-11.27886 4.253823-27.289757 17.203343-16.624997 10.000003 6.260587-4.22862 12.911607-5.98212 18.808597-7.947269 7.60671-2.53492 11.93119-2.99136 10.32031-1.40625-5.50082 5.412789 32.65304-1.79664 25.37109 1.353516-5.22802 2.261623 27.87804 15.106923 19.42969 15.154293-2.24767.0126.34661 2.73151 4.64844 6.25-8.34982-3.50292-18.28652-6.84625-27.70313-7.90429-22.25-2.5-55 9.75-69.999997 18.5-15 8.75 2.750003 0 7.75-1.25 5-1.25-1 6.75 3.25 3.75s31.993787-14.77582 26.249997-9.75c-6 5.25 1.25 1 12-3.5s26-1 23.75.5 13.91993 1.71093 22.41993 4.71093c6.29905 2.38475 12.99033 4.94015 18.8125 7.93946-5.52558-2.04503-25.64697-10.35562-49.48243-5.90039-26.75 5-48.63623 40.99525-44.75 36.75 8.63908-9.43718 27.5-24.5 24.25-18.25s25.92004-21.02447 21.75-10.75c-1.90128 4.68454 25.04356-8.96675 24.66407-1.20118-4.72456.85817-9.77274 2.37308-15.41407 4.95118-13.42317 6.13441-30.625 32-21.625 23s24.875-19.25 23.125-15 16.5-7.75 14.5-4c-1.69647 3.18088 11.64356-.79715 20.9961.97265-7.99395 1.38553-22.74763 5.35596-36.9961 16.52735-17.91544 14.04644-36.02582 64.04251-33.75 60.25 3.07322-5.12132 16.80469-30.63477 17.30469-27.38477s12.09302-19.83469 11.19531-15.86523c-4.02297 17.78858 23.5966-25.14708 20.04883-15.82422-6.97271 18.32293 16.10105-13.82077 25.43164-7.82813.60182.38652 1.13056.69685 1.64453.99219-2.01307 1.97649-3.99508 4.9488-7.875 11.66016-5.71137 9.87934-7.72797 22.98312-8.25 38-.55158 15.86689 4.51777 46.73744 4 36.75-.45761-8.82698.53936-42.36177 1.25-34.5 1.41161 15.61656 4.60652-28.14931 5.75-24.5 3.60355 11.50045 5.375-20.125 10.125-19-1.94937-6.82127-.59738-9.88965 5.69915-9.92741 2.33761-.004 5.13511.23795 7.30085 1.17741 16.3114 7.0756 15.5 24.5 16.375 12.75.88979-11.94867 13.5 27.375 13.125 18.625-.29452-6.8721 18.53927 39.76342 16.125 31.625-7.75-26.125-11.30814-36.63518-21.75-52.75-1.90502-2.94001-6.07373-6.75623-11.15429-10.24024 6.27556 2.36823 11.12185 3.90049 10.65429 1.49024-1.38388-7.13388 22.15853 16.78291 19.5 9.25-3.08363-8.73744 20.71988 6.21005 28.45703 13.9082 9.4545 9.40685 4.11743-1.76814-18.45703-17.6582-17.06677-12.01322-45.28126-16.16262-60.04101-17.56055 5.79579-2.21607 13.92082 2.8104 10.04101-.43942-4.0629-3.33434 34.28002-10.29108 24.5-10.5-9.70331-.20728 16.78464-8.78649 34.98438-9.92774 13.96588-.87575-4.12049-2.73942-26.48438 3.17774-17.46132 4.62001-33.23683 11.0638-42.15039 15.00195 8.02565-5.10889 25.54175-17.06092 17.65039-14.12695-8.61615 3.20344 28.12157-17.56126 21.5-15.375-9.0481 2.98744 1.60822-8.9041 11.23243-15.017581 11.29809-7.176774 23.39472-15.990083 7.51757-7.482422-21.85867 11.712803-42.64266 27.235223-59.38476 46.257813 3.94066-12.56647 11.11209-27.48263 5.00976-20.63281-8.12678 9.12224 12.75-27.125003 6.5-20.375003-6.25 6.749993-2.19654-15.94756 1-31.625.82309-4.036842.96138-5.571502.70508-5.556641z"/>
 <path d="m354.81454 365.27854c-3.0136-3.94518-58.93321-40.24456-98.32455-92.98812-33.31302-44.60491-45.741-91.31327-47.241-102.7575s-2.47488-19.09189-.35356-22.62742-1.94454-9.36917-5.83363-13.61181-8.13173-6.0104-9.54594 2.47488c-1.41422 8.48528 3.88908 14.49569 4.59619 18.73833s1.93493 10.42525 3.71231 19.79898c1.77738 9.37374 9.8964 49.17604 42.41259 101.87364 27.24011 44.14688 71.25483 75.61017 83.6292 85.15611 9.99862 9.4858 29.96199 7.88809 26.94839 3.94291z"/>
 <path d="m80.512327 370.12939c41.038963 4.79885 47.877833-14.57299 65.864513-23.43778 9.95327-4.9055 22.10164-9.36886 26.3097-6.73075 12.48799 7.82893 0 0-7.34852 8.00752-20.85837 22.72891 17.90691 32.61769 47.24005 8.22469 8.79271-7.31188 33.14397-20.03893 38.18916-15.02192 6.24416 6.20929-2.65958-3.22687-11.55301 7.15199-21.89632 25.5536 19.9639 28.11937 44.12348 10.61682 11.2067-8.11876 27.07436-22.46592 34.1713-14.76132" style="fill:none;stroke-width:12.7;stroke:#000"/>
</svg>
