<svg width="432.32736" height="432.32736" version="1.1" viewBox="0 0 432.32736 432.32735" xmlns="http://www.w3.org/2000/svg">
 <rect x="163.94215" y="159.22997" width="57.130333" height="158.05423" ry="1.5" style="fill:#fff;stroke-width:12.7;stroke:#000"/>
 <rect x="277.862" y="89.257416" width="68.382095" height="242.68457" ry="1.5" style="fill:#fff;stroke-width:12.7;stroke:#000"/>
 <path d="m86.893797 125.28735h73.462343c.74647 0 1.34741.669 1.34741 1.5v206.02449c0 .831-.60094 1.5-1.34741 1.5h-73.462343c-.746465 0-1.34741-.669-1.34741-1.5v-206.02449c0-.831.600945-1.5 1.34741-1.5z" style="fill:#fff;stroke-width:12.7;stroke:#000"/>
 <rect x="223.83992" y="225.8634" width="59.443176" height="117.20654" ry="1.5" style="fill:#fff;stroke-width:12.7;stroke:#000"/>
 <path d="m235.9487 292.10852h12.82794v10.269h-12.82794zm22.39768.22755h12.82794v10.269h-12.82794zm-22.39768 25.21534h12.82794v10.269h-12.82794zm22.39768.22755h12.82794v10.269h-12.82794zm-22.39768-76.89358h12.82794v10.269h-12.82794zm22.39768.22755h12.82794v10.269h-12.82794zm-22.39768 25.21534h12.82794v10.269h-12.82794zm22.39768.22755h12.82794v10.269h-12.82794zm-83.45187 19.23833h12.82794v10.269h-12.82794zm22.39768.22755h12.82794v10.269h-12.82794zm-22.39768-53.01288h12.82794v10.269h-12.82794zm22.39768.22755h12.82794v10.269h-12.82794zm-22.39768 25.21534h12.82794v10.269h-12.82794zm22.39768.22755h12.82794v10.269h-12.82794zm-22.39768-78.4558h12.82794v10.269h-12.82794zm22.39768.22755h12.82794v10.269h-12.82794zm-22.39768 25.21534h12.82794v10.269h-12.82794zm22.39768.22755h12.82794v10.269h-12.82794zm-91.28003 97.67352h12.82794v10.269h-12.82794zm22.39768.22754h12.82794v10.269h-12.82794zm-22.39768-52.90495h12.82794v10.269h-12.82794zm22.39768.22755h12.82794v10.269h-12.82794zm-22.39768 25.21534h12.82794v10.269h-12.82794zm22.39768.22755h12.82794v10.269h-12.82794zm-22.39768-78.34782h12.82794v10.269h-12.82794zm22.39768.22755h12.82794v10.269h-12.82794zm-22.39768 25.21534h12.82794v10.26901h-12.82794zm22.39768.22756h12.82794v10.269h-12.82794zm-22.39768-78.34786h12.82794v10.269h-12.82794zm22.39768.22755h12.82794v10.269h-12.82794zm-22.39768 25.21534h12.82794v10.269h-12.82794zm22.39768.22755h12.82794v10.26901h-12.82794zm166.0304 102.10172h12.82794v10.269h-12.82794zm22.39768.22755h12.82794v10.269h-12.82794zm-22.39768 25.21534h12.82794v10.269h-12.82794zm22.39768.22755h12.82794v10.269h-12.82794zm-22.39768-79.45537h12.82794v10.269h-12.82794zm22.39768.22755h12.82794v10.269h-12.82794zm-22.39768 25.21534h12.82794v10.269h-12.82794zm22.39768.22755h12.82794v10.269h-12.82794zm-22.39768-79.45537h12.82794v10.269h-12.82794zm22.39768.22756h12.82794v10.269h-12.82794zm-22.39768 25.21533h12.82794v10.269h-12.82794zm22.39768.22755h12.82794v10.269h-12.82794zm-22.39768-79.45537h12.82794v10.269h-12.82794zm22.39768.22755h12.82794v10.269h-12.82794zm-22.39768 25.21534h12.82794v10.269h-12.82794zm22.39768.22755h12.82794v10.269h-12.82794z" style="stroke-width:.78266197"/>
</svg>
