<svg width="432.32736" height="432.32736" version="1.1" viewBox="0 0 432.32736 432.32735" xmlns="http://www.w3.org/2000/svg">
 <ellipse cx="216.16368" cy="216.16368" rx="144.61951" ry="154.34944" style="fill:#fff;stroke-width:12.7;stroke:#000"/>
 <path d="m351.07852 162.56612s-4.5962 6.8943-7.07107 5.30331c-2.47487-1.591-15.02602-4.5962-15.2028-6.18719-.17677-1.59099 1.59099-5.3033-3.88908-5.83363-5.48008-.53033-16.97057 2.65165-20.32932 2.82843-3.35876.17677-4.41942 1.41421-5.65686 2.65165-1.23743 1.23743-3.35875 3.18198-4.94974 5.65685-1.591 2.47488-8.66206 7.95495-10.42983 10.6066s.53033 10.78338-.53033 12.9047-3.36363 6.68675-1.41665 8.11635c1.94698 1.42959 4.77541 9.38454 10.25548 11.50587 5.48008 2.12132 15.2028 1.59099 17.14734.7071 1.94455-.88388 8.13173-2.82843 10.42983 0s5.65685-1.41421 6.89429 2.12132c1.23744 3.53554-2.2981 8.48528 1.76777 12.9047 4.06586 4.41942 8.48528 14.49569 7.07107 16.79379-1.41422 2.29809-4.5962 8.13173-3.71232 10.42982.88389 2.2981 3.71232 8.83884 4.77298 11.66726 1.06066 2.82843 11.13693 14.31892 11.13693 14.31892s11.84404-46.84583 12.19759-68.05903-8.48528-48.43682-8.48528-48.43682zm-48.84457-44.14535c2.65835-.0921 4.65039-.0488 6.41816 4.3706 1.76777 4.41941 4.41269 8.05263 4.41269 8.05263s-4.94302 1.67009-7.24112 1.31653c-2.29809-.35355-5.48007-1.41421-3.0052-3.88908 2.47487-2.47488-.92669-2.19145-2.15059-4.28392s1.56606-5.56676 1.56606-5.56676zm-9.8453 11.44167c2.65166-3.53554 3.03448-4.02459 5.65686-4.94975s2.82843 1.94454 1.94454 3.18198c-.88388 1.23744-2.29809 2.47487-4.41941 2.47487s-3.18199-.7071-3.18199-.7071zm35.51917-6.29023s-2.81548 3.10824-5.29035 3.63857c-2.47487.53034-3.88235 5.55918-6.71751 4.5962s-2.82843 2.47487-6.54074 3.53553-11.50671-1.33715-6.72563 1.27597 8.11697 7.27055 5.21159 7.94704-11.39066-1.79839-12.27454.14616c-.88389 1.94454.35355 6.36396-1.06066 7.95495-1.41422 1.59099-1.23744 3.53553 1.23743 3.0052 2.47488-.53033 3.18198 1.59099 4.5962 2.12132 1.41421.53033 2.82842-1.59099 5.3033-1.94454 2.47487-.35355 4.06586-.53033 4.24264-3.0052.17677-2.47488 2.29809-2.82843 4.77297-5.12653 2.47487-2.2981 6.36396-3.71231 9.19239-3.71231 2.82842 0 4.24264.70711 6.18718 2.65165 1.94454 1.94455 3.53554 1.41422 6.01041 3.00521s1.37182 4.384 1.37182 4.384-7.02868.21219-4.20025 1.44963c2.82843 1.23743 3.22437 2.86384 3.71231.7071.48794-2.15673 1.59099-2.82842 3.88909-4.24264 2.2981-1.41421 6.01041-3.0052 3.0052-3.71231-3.0052-.7071-6.54073 0-8.66205-1.94454-2.12132-1.94455-4.84322-2.55383-2.77517-4.19373 2.06806-1.6399 5.07326-.40247 6.84103-.0489m-52.50268-35.35535s-2.20103-1.43804-9.01561-1.41422c-6.81458.0238-11.52714-.19345-8.76877 2.20137 2.75836 2.39483 12.23698 1.96345 12.23698 1.96345s4.13319-.27573 5.5474-2.7506zm-20.15254-33.764353c-1.23744 0-18.73833 3.005204-25.10229 2.651651-6.36396-.353554-28.58401-.01182-33.76435 1.944543-5.18035 1.956365-10.78338 4.772971-13.43503 5.126525-2.65165.353553-10.78338.176776-7.77818 2.474873 3.00521 2.298097 2.12132 3.889088 8.66206 3.535534 6.54074-.353553 13.78858-.707107 16.08668 1.590991 2.2981 2.298097 5.83363 6.187184 8.13173 6.363961 2.2981.176776 4.24264 2.298097 2.47487 4.065865-1.76776 1.76777-5.12652 1.23744-3.88908 3.53553 1.23743 2.2981 6.9344 11.30538 10.25304 11.31371 3.31865.008 4.94975 2.65165 6.36397.53033 1.41421-2.12132 3.83946-5.66428 7.42462-7.77817 3.58515-2.11389 11.01336-5.80473 17.35072-6.61468 6.33735-.80994 10.41825-3.465868 13.23916-7.264431 2.82091-3.798562 5.11901-7.510873 5.82612-11.39996m-121.97593 7.424621c3.18198 0 7.60139.176777 10.60661.53033 3.0052.353554 3.18198-1.767767-.35356-1.767767s-13.96536-2.12132-15.37958-1.767767c-1.41421.353554-3.53553 1.590991-.70711 2.121321 2.82843.53033 5.83364.883883 5.83364.883883zm-4.41635-4.929371c10.60353 1.570614 15.90684 2.631274 18.91204 2.100944 3.00521-.53033 4.41942-1.59099 7.24785-2.828427s6.89429-2.828427 9.89949-3.712311c3.00521-.883883 16.97057-3.358757 11.84404-3.889087-5.12652-.53033-14.84924-.883883-18.73833-.883883-3.88908 0-15.55635-2.298097-15.55635-2.298097m9.09818 34.365382c3.62975.28285 9.2866.63641 12.46858 2.05062s10.78338 4.41942 9.72272 1.94454c-1.06066-2.47487 2.65165-1.76776 1.06066-4.06586s-1.59099-2.65165.53033-2.82843 7.77817.35355 3.35876-1.59099c-4.41942-1.94454-11.84404-8.485282-19.09189-9.899496-7.24784-1.414213-18.91511-.883883-22.8042-.707107-3.88909.176777 0 6.010408 5.12652 6.010408 5.12654 0 10.04964-1.31024 12.12896.08474 2.07931 1.394985 9.96814 2.213355 7.13971 4.511455-2.82842 2.2981-3.53553 3.88909-5.83363 3.18198-2.29809-.70711-3.80652 1.30814-3.80652 1.30814zm-.33609 80.21504c3.74088.31639 3.43551 1.91542 2.19807 1.91542s-2.19807-1.91542-2.19807-1.91542zm10.86013-.0291c2.29809-.70711 8.66206-.70711 5.12652-2.2981-3.53553-1.59099-8.59846-1.70118-7.12766-.40865 1.47081 1.29253 2.00114 2.70675 2.00114 2.70675zm-21.89666-6.65234c4.04221-2.1865 8.10807-2.00972 10.05262-1.12584 1.94454.88389 8.83883 3.35876 6.89429 3.71231-1.94454.35356-8.95697-2.32585-11.196-2.40036-2.23903-.0745-5.75091-.18611-5.75091-.18611zm33.21037-37.01151c1.94454-1.59099 6.54073-1.76776 7.77817-3.18198 1.23744-1.41421.81749-3.32661-1.62419-2.28202-2.44167 1.04459-5.62365 3.69624-6.68431 4.22657s.53033 1.23743.53033 1.23743zm10.69426-8.12236c2.56399.87452 10.16539 2.99584 10.51894 1.0513.35355-1.94455-.35355-2.82843-3.0052-3.88909s-2.38576-1.42357-4.94975.70711l-2.56399 2.13068zm-115.76996-.18875c0 1 3.75 18.25 10 22.75s16.25 12.5 19.5 16.25 7.5 11 12.75 13.75 11.25.75 15.25 4 8.75 3.5 11.25 6.25 7.75001 8.25 10.75001 7 8-3.25 3.5-3-10.25001-1-10.00001-4.75-2.75-7.5-5.5-7.5-2-4.75-.75-7.25-2.5-.75-5.5 1.5-10 2.5-11.25-2.75-1.75-14.25 9.5-15.25 16.25001 5 18.00001 7.5 3.75 0 2.25-4 3-9 6.75-12.25 9-13.25 14.5-15.25 5.32366-3.47764 5.75-6.75 1.5-3.75 6.75-4.5 11.25-1.25 8.25-4.25-12.0711-7.73699-13.25-12-6.75 5.25-11.5.25-10.75-6.5-12.25-3.5 1.75 6.25 0 9.25.25 12-3.25 9.75-3.25-6.25-10.75001-8.25c-7.5-2-19.25-5.75-14.75-9.25s8-7 11.5-8 15.00001-1 10.25001-3.75c-4.75001-2.750001-9.25001 1.25-12.00001-.25s-7.25-3.500001-7.75-6.250001-2.5-5.5-4-4.5-.75 7.25-.75 8.750001c0 1.5 1.5 1.25-2.75 1.5s-18.5-1.75-18.5-1.75m59.12501 189.875c-1.75 6.75-3.72698 13.15124-3.19665 16.68677.53033 3.53554 1.94454 7.42462 7.95495 9.01561s12.9047 1.06066 9.89949-.88388c-3.0052-1.94454-7.77817-5.12652-6.01041-6.71752 1.76777-1.59099 6.54074-3.0052 5.48008-4.77297-1.06066-1.76776-4.24264-3.53553-1.94454-4.41941 2.2981-.88389 2.47487-3.53554 3.18198-5.83363.70711-2.2981 4.24264-.70711 4.77297-2.65165.53033-1.94455 6.71751-2.12133 8.48528-5.65686s6.18719-4.24264 7.24785-6.01041c1.06066-1.76776 7.95495-8.13172 7.95495-10.25305 0-2.12132-.53033-4.24264 3.53553-6.36396 4.06587-2.12132 7.24785-1.59099 8.48528-2.65165 1.23744-1.06066 4.24264-6.0104 4.24264-7.60139s.35356-9.19239 1.23744-10.07628c.88388-.88388 4.77297-4.59619 5.65685-6.36396.88389-1.76776.88389-4.77297-1.23743-5.83363s-10.6066-3.35876-14.84924-6.18718c-4.24265-2.82843-10.07628-8.13173-12.1976-10.07627-2.12132-1.94455-6.36396-2.82843-8.83883-3.88909-2.47488-1.06066-10.6066-8.30851-14.31891-7.77818s-12.72793-1.59099-14.31892-1.06066-4.77297 4.77297-6.71751 4.41942-1.94454 4.24264-1.41421 6.36396-8.30851 10.07627-6.8943 12.19759c1.41422 2.12132-.17677 7.07107 2.65165 9.54595 2.82843 2.47487 4.5962 11.84403 8.30851 13.96535 3.71231 2.12133 7.77817 2.82843 8.66206 7.6014.88388 4.77297-1.59099 23.5113-3.35876 26.51651-1.76777 3.0052-2.4602 8.76907-2.4602 8.76907zm-40.25001 57.25c.625 0 14.25-.875 17.875-.375s12.25001 1.75 13.75001.625 11.6833.0364 10.15415-1.41931c-1.52915-1.45569-5.45036-1.2232-3.05226-3.08944 2.39811-1.86625 5.30998-3.30744 7.77311-2.49125s3.76629 1.95891 4.25-1.125 17.56891-10.41671 16.93612-9.26276c-.63278 1.15394-2.83562 5.01696-3.57337 8.07736s-5.23775 12.3104-.98775 12.6854 20.5 5 24.875 4.625 23.625.25 26.5-1.25 10-4.25 14-5.5 12.5-.875 14.875-.5c0 0-32 17.875-40 20.375s-55.75 1.5-65.5-1.75-37.87501-19.625-37.87501-19.625z" style="fill:none;stroke-width:1.3;stroke:#000"/>
</svg>
