<svg width="432.32736" height="432.32736" version="1.1" viewBox="0 0 432.32736 432.32735" xmlns="http://www.w3.org/2000/svg">
 <path d="m237.98055 69.690831c8.3597 7.79342 10.82316 15.621344 9.32328 25.184421-1.49959 9.563578-3.18531 20.857378-5.36245 31.212418-3.96264 5.85568-6.88362 10.04532-12.08626 17.31524v12.50797c14.45105 5.73623 27.73081 12.99626 43.46615 22.88016l28.24128 37.34837c1.36359 7.94969-3.37384 18.35437-17.67337 17.61386l-20.19757-26.97315c-15.71618 17.69356-14.84048 40.15404-15.07454 67.60337l1.95307 16.72505 13.29187 69.99843c-8.15954 12.68855-30.08754 11.15305-39.11591 4.08774l-5.0839-28.44812c-.57297-2.3994-.97958-4.78467-3.49846-4.97373-2.51885.18906-2.92552 2.57433-3.49846 4.97373l-5.0839 28.44812c-9.02827 7.06552-30.95616 8.60031-39.1159-4.08774l13.29186-69.99843 1.95307-16.72505c-.23406-27.44933.64164-49.90981-15.07454-67.60337l-20.19757 26.97315c-14.29972.74051-19.03737-9.66417-17.67338-17.61386l28.24129-37.34837c15.73535-9.8839 29.0151-17.14373 43.46616-22.88016v-12.50797c-5.20265-7.26992-8.12363-11.45976-12.08627-17.31524-2.17714-10.35504-3.86286-21.64833-5.36244-31.212418-1.49989-9.563077.96357-17.3909 9.32327-25.184421 8.35949-7.79342 21.81681-7.956352 21.81681-7.956352s13.45732.162831 21.81681 7.956352z" style="fill:#fff;stroke-width:12.7;stroke:#000"/>
</svg>
