<svg width="432.32736" height="432.32736" version="1.1" viewBox="0 0 432.32736 432.32735" xmlns="http://www.w3.org/2000/svg">
 <path d="m169.42193 352.45203c-.44564-31.27374-3.67914-57.04776-22.75835-78.5271-8.70585-14.4558-13.08287-28.4989-14.08308-40.92927 23.01115-14.45479 42.42911-25.07055 63.56271-33.45906v-18.29081c-7.6081-10.63076-11.87978-16.75801-17.6743-25.32038-3.18373-15.14325-5.64842-31.65846-7.84171-45.64362-2.1933-13.985154 1.4089-25.432278 13.63342-36.828444 12.22453-11.397163 31.90307-11.634982 31.90307-11.634982s19.67854.237812 31.90306 11.634976c12.22453 11.396163 15.82673 22.843288 13.63343 36.82845-2.19329 13.98516-4.65799 30.50037-7.84172 45.64362-5.79451 8.56237-10.0662 14.68962-17.6743 25.32038v18.29081c21.13362 8.38851 40.55156 19.00427 63.56272 33.45906-1.00022 12.43037-5.37724 26.47347-14.08308 40.92927-19.07921 21.47934-22.31271 47.25336-22.75836 78.5271-9.2848 11.79786-25.15849 18.64455-46.74175 18.01903-21.58326.62552-37.45695-6.22117-46.74176-18.01903z" style="fill:#fff;stroke-width:12.7;stroke:#000"/>
</svg>
