<svg width="432.32736" height="432.32736" version="1.1" viewBox="0 0 432.32736 432.32735" xmlns="http://www.w3.org/2000/svg">
 <path d="m327.91528 229.10348c.048-4.18039 11.94165 9.90471 11.8647 7.6207-.8837-3.47061 20.46133-3.07255 21.91047-6.15646 5.51264-10.17464 18.2452-5.53259 17.28851-8.79102-1.90996-6.97616 2.048-8.00827.17677-12.88455-1.72067-4.48397-3.65625-13.14548-1.21299-17.87348 1.0166-6.00356-13.54849-6.59419-15.54775-16.43777-9.78609-5.18628-11.08962 13.45131-19.94617 4.69945-2.1519-3.87431-8.94722-14.91537-5.25061-18.46075 1.68999-1.64063-1.12193-2.91146-.69133-4.09874 1.53949-4.24476 8.40158-7.22197 7.65694-13.29397-.9021-4.171-13.22786-5.61053-18.80275-6.82965-2.68328-.68502-11.15461 7.38819-20.796 6.84792-11.39009-.63826-18.84209 5.39728-19.98455 4.14588-2.55293-2.79634-4.8426-7.86949-9.09748-8.26897-4.25487-.39948-9.95682-3.39024-12.08427-4.58868-2.12743-1.19844 5.94045-17.30107 4.2385-16.10264-1.70196 1.19844-7.82944-.54329-7.82944-.54329-11.65601-4.79253-14.69492 2.52922-25.14894 3.07987-3.29038-.009-3.90905 6.83456-6.68037 9.39123-7.26195.67705-18.32317-2.61068-23.36704-4.71755-4.5865-.98357-16.28666-3.94356-19.14695-1.9974-4.69 4.62102-9.9249 4.5067-17.90183 4.73492-.99359 4.65587-10.48421-6.23507-12.39137-4.57972-5.88727 4.48904-37.35136-20.84852-44.90657-22.53894-7.24278-3.649229-7.34898 22.83117-14.368527 18.81577-5.749525-1.45247-14.578131-.1391-22.125368 0-3.540649 1.80417-9.040692-4.31491-20.326824-4.23081-1.687534-.34134.310649 11.41534.328882 15.8157-1.112529 1.29678 20.326972 8.49325 35.660378 14.03525 7.135458 2.579 17.103469 3.03134 15.340529 5.56505-2.55516 6.71243 12.65668 14.74434 10.63368 21.9967.20392 2.88508 5.98802 1.90758 3.95683 5.59456-7.0715 7.40003-.20888 19.32111-6.12482 23.2313-5.2372 3.46158-12.52279 2.35285-17.222118 8.87015.734034 7.06223 4.313288 7.70901 7.874588 13.11022 5.62262 1.4314.73018 30.76041 3.2499 35.33288 6.23943 2.47629 11.41427 4.96291 14.92495 10.05683-.70915 4.05388 21.7067-5.26649 19.87255-.78414.25157 1.18331 18.25268 13.30334 22.58609 22.11656 3.8952 1.5979-11.60154 14.74491-8.03085 18.12654 7.39828 8.31358 22.49299 33.43113 32.26236 37.91643 4.79461-.3266 5.78884-10.967 7.34704-11.52018 13.27417-12.14363 7.69395-1.30535 21.16344-.58669 18.93383-2.69614 28.95441-7.28503 47.32553 6.6419-.16411 2.81638-.0951-19.35891 2.45844-22.12014 5.27687-5.29802 11.54177-11.67791 16.59404-12.78332 8.43195 2.64685 6.2641 7.70185 11.48817 12.78332 1.59168 5.53971 14.90866-5.39155 17.97724-6.64653 3.68974-1.84032 10.78052.49029 13.61561.79896 4.53832.16599 15.0088-4.86053 14.04111-6.79115-1.59609-11.23788-20.29259-22.9507-20.9536-28.21881-2.62795-9.77575 5.60185-40.00521 8.10127-49.48274z" style="stroke-width:12.7;stroke:#000"/>
 <path d="m326.92842 213.10348c.048-4.18039 11.94165 9.90471 11.8647 7.6207-.8837-3.47061 20.46133-3.07255 21.91047-6.15646 5.51264-10.17464 18.2452-5.53259 17.28851-8.79102-1.90996-6.97616 2.048-8.00827.17677-12.88455-1.72067-4.48397-3.65625-13.14548-1.21299-17.87348 1.0166-6.00356-13.54849-6.59419-15.54775-16.43778-9.78609-5.18628-11.08962 13.45132-19.94617 4.69946-2.1519-3.87432-8.94722-14.91538-5.25061-18.46076 1.68999-1.64063-1.12193-2.91146-.69133-4.09874 1.53949-4.24476 8.40158-7.22197 7.65694-13.29397-.9021-4.171-13.22786-5.61053-18.80275-6.82965-2.68328-.68502-11.15461 7.38819-20.796 6.84792-11.39009-.63826-18.84209 5.39728-19.98455 4.14588-2.55293-2.79634-4.8426-7.86949-9.09748-8.26897-4.25487-.39948-9.95682-3.39024-12.08427-4.58868-2.12743-1.19844 5.94045-17.30107 4.2385-16.10264-1.70196 1.19844-7.82944-.54329-7.82944-.54329-11.65601-4.792527-14.69492 2.52922-25.14894 3.07987-3.29038-.009-3.90905 6.83456-6.68037 9.39123-7.26195.67705-18.32317-2.61068-23.36704-4.71755-4.5865-.98357-16.28666-3.94356-19.14695-1.9974-4.69 4.62102-9.9249 4.5067-17.90183 4.73492-.99359 4.65587-10.48421-6.23507-12.39137-4.57972-5.88727 4.48904-37.35136-20.848517-44.90657-22.538937-7.24278-3.64923-7.34898 22.831167-14.368524 18.815767-5.74952-1.45247-14.57813-.1391-22.12536 0-3.54065 1.80417-8.73004-3.10022-3.26617 6.48388-1.55495 3.32678-14.75001 3.32565-16.73178 5.10101-1.11253 1.29678 20.32698 8.49325 35.66038 14.03525 7.13546 2.579 17.103464 3.03134 15.340524 5.56505-2.55516 6.71243 12.65668 14.74434 10.63368 21.9967.20392 2.88508 5.98802 1.90758 3.95683 5.59457-7.0715 7.40003-.20888 19.32111-6.12482 23.2313-5.2372 3.46158-12.522788 2.35285-17.222114 8.87015.73404 7.06223 4.31329 7.70901 7.874584 13.11022 5.62262 1.4314.73018 30.76041 3.2499 35.33288 6.23943 2.47629 11.41427 4.96291 14.92495 10.05683-.70915 4.05388 21.7067-5.26649 19.87255-.78414.25157 1.18331 18.25268 13.30334 22.58609 22.11656 3.8952 1.5979-11.60154 14.74491-8.03085 18.12654 7.39828 8.31358 22.49299 33.43113 32.26236 37.91643 4.79461-.3266 5.78884-10.967 7.34704-11.52018 13.27417-12.14363 7.69395-1.30535 21.16344-.58669 18.93383-2.69614 28.95441-7.28503 47.32553 6.6419-.16411 2.81638-.0951-19.35891 2.45844-22.12014 5.27687-5.29802 11.54177-11.67791 16.59404-12.78332 8.43195 2.64685 6.2641 7.70185 11.48817 12.78332 1.59168 5.53971 14.90866-5.39155 17.97724-6.64653 3.68974-1.84032 10.78052.49029 13.61561.79896 4.53832.16599 15.0088-4.86053 14.04111-6.79115-1.59609-11.23788-20.29259-22.9507-20.9536-28.21881-2.62795-9.77575 5.60185-40.00521 8.10127-49.48274z" style="fill:#fff;stroke-width:12.7;stroke:#000"/>
</svg>
