<?xml version="1.0" encoding="UTF-8" standalone="no"?>
<svg
   xmlns:dc="http://purl.org/dc/elements/1.1/"
   xmlns:cc="http://creativecommons.org/ns#"
   xmlns:rdf="http://www.w3.org/1999/02/22-rdf-syntax-ns#"
   xmlns:svg="http://www.w3.org/2000/svg"
   xmlns="http://www.w3.org/2000/svg"
   xmlns:sodipodi="http://sodipodi.sourceforge.net/DTD/sodipodi-0.dtd"
   xmlns:inkscape="http://www.inkscape.org/namespaces/inkscape"
   id="personal_stage_svg"
   version="1.1"
   viewBox="0 0 432.32736 432.32735"
   sodipodi:docname="main-nav-button-template.svg"
   width="432.32736"
   height="432.32736"
   inkscape:version="0.92.2 (5c3e80d, 2017-08-06)">
  <metadata
     id="metadata15">
    <rdf:RDF>
      <cc:Work
         rdf:about="">
        <dc:format>image/svg+xml</dc:format>
        <dc:type
           rdf:resource="http://purl.org/dc/dcmitype/StillImage" />
        <dc:title />
      </cc:Work>
    </rdf:RDF>
  </metadata>
  <defs
     id="defs13" />
  <sodipodi:namedview
     pagecolor="#ffffff"
     bordercolor="#666666"
     borderopacity="1"
     objecttolerance="10"
     gridtolerance="10"
     guidetolerance="10"
     inkscape:pageopacity="0"
     inkscape:pageshadow="2"
     inkscape:window-width="1920"
     inkscape:window-height="1013"
     id="namedview11"
     showgrid="false"
     inkscape:zoom="0.70710678"
     inkscape:cx="32.585582"
     inkscape:cy="154.81968"
     inkscape:window-x="-9"
     inkscape:window-y="-9"
     inkscape:window-maximized="1"
     inkscape:current-layer="personal_stage_svg"
     showguides="true"
     inkscape:guide-bbox="true">
    <sodipodi:guide
       position="216.7422,377.00778"
       orientation="0,1"
       id="guide826"
       inkscape:locked="false" />
    <sodipodi:guide
       position="214.8008,55.312478"
       orientation="0,1"
       id="guide828"
       inkscape:locked="false" />
  </sodipodi:namedview>
  <path
     id="path908-1"
     style="fill:#ffffff;stroke:#000000;stroke-width:12.69999981;stroke-miterlimit:4;stroke-dasharray:none"
     d="m 169.42193,352.45203 c -0.44564,-31.27374 -3.67914,-57.04776 -22.75835,-78.5271 -8.70585,-14.4558 -13.08287,-28.4989 -14.08308,-40.92927 23.01115,-14.45479 42.42911,-25.07055 63.56271,-33.45906 v -18.29081 c -7.6081,-10.63076 -11.87978,-16.75801 -17.6743,-25.32038 -3.18373,-15.14325 -5.64842,-31.65846 -7.84171,-45.64362 -2.1933,-13.985154 1.4089,-25.432278 13.63342,-36.828444 12.22453,-11.397163 31.90307,-11.634982 31.90307,-11.634982 0,0 19.67854,0.237812 31.90306,11.634976 12.22453,11.396163 15.82673,22.843288 13.63343,36.82845 -2.19329,13.98516 -4.65799,30.50037 -7.84172,45.64362 -5.79451,8.56237 -10.0662,14.68962 -17.6743,25.32038 v 18.29081 c 21.13362,8.38851 40.55156,19.00427 63.56272,33.45906 -1.00022,12.43037 -5.37724,26.47347 -14.08308,40.92927 -19.07921,21.47934 -22.31271,47.25336 -22.75836,78.5271 -9.2848,11.79786 -25.15849,18.64455 -46.74175,18.01903 -21.58326,0.62552 -37.45695,-6.22117 -46.74176,-18.01903 z"
     inkscape:connector-curvature="0"
     sodipodi:nodetypes="ccccccscccscccccccc" />
</svg>
