<svg width="432.32736" height="432.32736" version="1.1" viewBox="0 0 432.32736 432.32735" xmlns="http://www.w3.org/2000/svg">
 <path d="m215.43211 215.43758 62.51179 60.62395c-3.74448 10.8293-.75342 22.84807 7.63002 30.65914 11.71999 10.8893 30.04847 10.21577 40.93761-1.50436 10.88931-11.71999 10.21578-30.04849-1.50437-40.93763-8.40985-7.80217-20.63175-9.90626-31.16651-5.36552l-63.37087-55.4465z"/>
 <path d="m111.20869 76.215896c4.01356 5.550823 3.32538 13.84327-.22516 18.140396-.62789.75993 5.275 10.272188 9.75989 13.534618 7.1831 5.2252 37.43448-16.594023 67.58229 7.71772 30.1478 24.31173 50.29008 62.71283 81.51983 69.1647s51.16554-2.91061 62.84464 11.851c12.54038 15.85024 27.17418 20.15654-.3323 30.33162-40.76754 15.08055-81.37898 47.42926-90.86233 54.10582-9.312 6.91354-52.75748 35.34273-79.85344 69.33132-18.28206 22.93261-17.78581 7.68643-28.90807-9.1892-10.35836-15.71657 4.77967-31.71445 8.43894-63.39305 3.65927-31.67859-26.49591-62.8398-40.13602-99.08753-13.640106-36.24773 16.55978-58.13818 13.84865-66.59687-1.69273-5.28132-8.87615-13.867689-9.79457-13.50955-5.193291 2.02516-13.283734.08015-17.29729-5.470668-4.013556-5.55082-6.047632-14.483351 2.681019-20.948911 8.875135-6.26297 16.720371-1.532236 20.733921 4.018585z" style="fill:#fff;stroke-width:12.7;stroke:#000"/>
 <path d="m147.90664 361.93363c7.52946 8.55574 59.09488-33.0487 114.90058-71.50134s86.59498-67.14077 83.9251-72.67002" style="fill:none;stroke-width:12.7;stroke:#000"/>
</svg>
