<svg width="432.32736" height="432.32736" version="1.1" viewBox="0 0 432.32736 432.32735" xmlns="http://www.w3.org/2000/svg">
 <path d="m144.87542 160.02291s47.52552-13.84069 71.28826-13.84069c23.76276 0 71.28827 13.84069 71.28827 13.84069v31.88355s-47.59691-13.84066-71.35966-13.84066c-23.76277 0-71.21687 13.84066-71.21687 13.84066zm98.75115 127.78282-27.4026-14.35638-27.3614 14.43476 5.18586-30.49779-22.18341-21.56164 30.60764-4.4923 13.65129-27.76059 13.73071 27.7214 30.62037 4.40466-22.1216 21.62506zm46.58416-15.05598c7.49694-36.40703-2.32648-65.50543-3.45348-80.9001-1.127-15.39468 13.77447-53.20613 13.77447-53.20613l-22.96236-31.01706s-18.32177 11.79092-33.72413 10.98068c-15.40238-.81024-27.68155-15.34436-27.68155-15.34436s-12.27917 14.53412-27.68154 15.34436-33.72414-10.98068-33.72414-10.98068l-22.96236 31.01706s14.90148 37.81145 13.77447 53.20613c-1.127 15.39467-10.95042 44.49307-3.45348 80.9001 7.49695 36.40701 40.31506 44.20715 74.04705 59.07156 33.73199-14.86441 66.5501-22.66455 74.04705-59.07156zm30.48522 16.23571c10.58344-47.65897-3.28427-85.75053-4.87527-105.90307-1.59099-20.15255 19.44544-69.65002 19.44544-69.65002l-32.416-40.603188s-25.86485 15.43503-47.60838 14.37437c-21.74354-1.06066-39.07806-20.08668-39.07806-20.08668s-17.33452 19.02602-39.07806 20.08668c-21.74353 1.06066-47.60838-14.37437-47.60838-14.37437l-32.415998 40.603188s21.036428 49.49747 19.445438 69.65002c-1.591 20.15254-15.45871 58.2441-4.87527 105.90307s56.91279 59.33554 104.53227 78.79394c47.61948-19.4584 93.94883-31.13497 104.53227-78.79394z" style="fill:#fff;stroke-width:12.7;stroke:#000"/>
</svg>
