<svg width="432.32736" height="432.32736" version="1.1" viewBox="0 0 432.32736 432.32735" xmlns="http://www.w3.org/2000/svg">
 <path d="m239.24637 297.3162c10.98497-2.10072 19.0978-10.79375 19.0978-10.79375v-23.66755s55.62936-29.64862 55.62936-91.69673-49.82189-96.58722-97.80985-96.587224c-47.98796-5e-6-97.80985 34.539104-97.80985 96.587224 0 62.04811 55.62936 91.69673 55.62936 91.69673v23.66755s8.11283 8.69303 19.0978 10.79375c10.07902 1.92746 16.15449 1.67819 23.08269 1.72179 6.9282-.0436 13.00367.20567 23.08269-1.72179z" style="fill:#fff;stroke-width:12.7;stroke:#000"/>
 <path d="m229.61254 242.68161 18.33935-39.12393s-8.86402-17.11673-9.78098-31.48255c-.91698-14.36581.41053-32.64952 5.80746-31.17687 4.25274 1.16043 6.33175 17.9936 3.66785 29.03729-1.75305 7.26766-5.19735 10.87025-12.53189 11.0036-8.40553.15283-12.53187-10.08665-13.44884-20.17328-.91696-10.08663 1.24228-20.39043 5.80745-19.86761 3.93645.4508 6.81716 13.11192 2.2662 29.29049-2.2606 8.03647-7.15668 12.7851-13.57546 7.28329 0 0-8.43565-7.01477-5.68565-27.13976.96628-7.07143 4.56277-9.66235 5.68565-9.70439 1.12288.042 4.71937 2.63296 5.68565 9.70439 2.75 20.125-5.68565 27.13977-5.68565 27.13977-6.41878 5.5018-11.31486.75318-13.57546-7.2833-4.55096-16.17857-1.67025-28.83969 2.2662-29.29049 4.56517-.52282 6.72441 9.78098 5.80745 19.86761-.91697 10.08664-5.04331 20.32612-13.44884 20.17329-7.33454-.13336-10.77884-3.73595-12.53189-11.00361-2.6639-11.04369-.58489-27.87686 3.66785-29.03729 5.39693-1.47265 6.72444 16.81106 5.80746 31.17687-.91696 14.36583-9.78098 31.48255-9.78098 31.48255l18.33935 39.12393m19.71658 59.78247s-2.97081-53.10453.76582-53.2923c9.539-.47935 13.6963-3.25294 11.55671-6.30951-2.1396-3.05655-18.59025-2.40976-18.59025-2.40976s-16.45065-.64679-18.59025 2.40976c-2.13959 3.05657 2.01771 5.83016 11.55671 6.30951 3.73663.18777.76582 53.2923.76582 53.2923" style="fill:none;stroke-width:5;stroke:#000"/>
 <path d="m255.16303 295.66015c8.79699 6.97424 11.24472 7.62578 5.4161 10.79404-5.82863 3.16825-5.95605 5.81144-3.82872 7.73317 4.01278 4.41696 11.2743 8.97788 6.88158 10.76357-4.39273 1.78569-13.32871 5.57061-7.29162 9.71969 3.09234 1.90166 8.90363 3.18453 4.34145 5.30754l-26.85805 14.92748c-2.06235.97161-4.85654 6.70078-17.66009 6.70078s-15.59774-5.72917-17.66009-6.70078l-26.85804-14.92748c-4.56218-2.12301 1.24911-3.40588 4.34144-5.30754 6.03709-4.14908-2.89888-7.934-7.29161-9.71969-4.39272-1.78569 2.8688-6.34661 6.88157-10.76357 2.12733-1.92173 1.99991-4.56492-3.82871-7.73317-5.82862-3.16826-3.38089-3.8198 5.41609-10.79404m-1.61883 13.53666s7.81234 7.54749 18.39044 9.37138c9.70571 1.67346 15.55615 1.45704 22.22774 1.4949 6.67159-.0379 12.52203.17856 22.22774-1.4949 10.5781-1.82389 18.39045-9.37138 18.39045-9.37138m-81.23637 19.16287s7.81234 7.54749 18.39044 9.37138c9.70571 1.67347 15.55615 1.45704 22.22774 1.4949 6.67159-.0379 12.52203.17857 22.22774-1.4949 10.5781-1.82389 18.39045-9.37138 18.39045-9.37138m-.48149-33.55051s-7.81234 7.54749-18.39044 9.37138c-9.70571 1.67347-15.55615 1.45705-22.22774 1.4949-6.67159-.0378-12.52203.17857-22.22774-1.4949-10.5781-1.82389-18.39045-9.37138-18.39045-9.37138" style="fill:none;stroke-width:5;stroke:#000"/>
</svg>
