<svg width="432.32736" height="432.32736" version="1.1" viewBox="0 0 432.32736 432.32735" xmlns="http://www.w3.org/2000/svg">
 <path d="m78.433312 247.8375 18.901167 14.70091m-22.640091-47.13646 18.901167 14.70091m-18.312438-39.55759 18.901168 14.7009m-12.600779-35.11347 18.901164 14.70091m-9.45058-33.60208 18.90117 14.70091m-8.92555-33.60208 18.90116 14.70091m103.95643-70.879376 18.90116 14.700907m-48.30298-13.91336 18.90116 14.700908m-42.79014-11.025681 18.90117 14.700908m-38.58989-4.987808 18.90117 14.700912m-37.80233-3.1502 18.90116 14.70091m-36.22723-.52503 18.90117 14.7009m206.81289 78.02228a133.13754 133.13754 0 0 1-133.13754 133.13754 133.13754 133.13754 0 0 1-133.13753-133.13754 133.13754 133.13754 0 0 1 133.13753-133.13753 133.13754 133.13754 0 0 1 133.13754 133.13753z" style="fill:none;stroke-width:12.7;stroke:#000"/>
 <circle cx="225.09029" cy="223.54982" r="133.13754" style="fill:#fff;stroke-width:12.7;stroke:#000"/>
 <path d="m268.17561 190.93073h-37.9226v-6.28914q0-10.04387-1.31415-13.1415-1.31415-3.09765-5.63208-3.09765-3.47311 0-5.2566 2.72217-1.68962 2.6283-1.68962 7.97877 0 8.91744 3.56697 12.48442 3.47312 3.56698 20.4632 13.89245 14.45565 8.72971 19.71225 13.42311 5.2566 4.59952 8.82358 13.14149 3.66085 8.44811 3.66085 21.12026 0 20.27546-9.76227 31.82121-9.76225 11.54574-29.28676 14.26791v14.26792h-17.45943v-14.73726q-15.20659-1.50189-26.5646-11.63962-11.358-10.23159-11.358-35.57591v-7.41556h37.9226v9.29292q0 15.30046 1.12642 19.05517 1.22028 3.66084 5.72594 3.66084 3.84858 0 5.72594-2.53443 1.87736-2.62829 1.87736-7.69716 0-12.76603-1.78349-18.21036-1.78349-5.53821-12.20283-12.01509-17.36555-10.88867-23.6547-15.95753-6.19527-5.16274-10.7948-14.45566-4.50564-9.29291-4.50564-21.02639 0-16.99008 9.5745-26.65847 9.66839-9.66839 28.9113-11.92122v-12.10895h17.45943v12.10895q17.55329 2.25283 26.283 11.82736 8.7297 9.48064 8.7297 26.28299 0 2.3467-.37547 7.13396z" style="fill:#fff;stroke-width:12.7;stroke:#000"/>
</svg>
