<svg width="432.32736" height="432.32736" version="1.1" viewBox="0 0 432.32736 432.32735" xmlns="http://www.w3.org/2000/svg">
 <path transform="matrix(.88377281 0 0 1 25.124098 12.000004)" d="m374.38803 335.0238c-9.49347 16.44315-306.95523 16.44315-316.44869 0-9.493461-16.44316 139.23742-274.05261 158.22434-274.05261s167.71781 257.60945 158.22435 274.05261z" style="stroke-width:13.509317;stroke:#000"/>
 <path transform="matrix(.88377281 0 0 1 25.124098 12.000004)" d="m349.69088 317.92508c-21.36435 37.00414-245.69005 37.00414-267.0544 0-21.364352-37.00414 90.798499-231.2759 133.5272-231.2759 42.72871 0 154.89155 194.27176 133.5272 231.2759z" style="fill:#fff;stroke-width:13.509317;stroke:#000"/>
 <path d="m235.3052 153.28803-4.32963 120.41591h-30.76315l-4.10175-120.41591zm-19.14151 169.75137q-10.48227 0-18.00215-3.74108-7.29201-3.74108-7.29201-9.11888 0-5.37779 7.29201-9.11888 7.51988-3.85798 18.00215-3.85798 10.25437 0 17.77425 3.85798 7.51988 3.74109 7.51988 9.11888 0 5.3778-7.51988 9.11888t-17.77425 3.74108z"/>
</svg>
