<svg width="432.32736" height="432.32736" version="1.1" viewBox="0 0 432.32736 432.32735" xmlns="http://www.w3.org/2000/svg">
 <path d="m155.07184 93.469637c-.93755 0-1.69251.752834-1.69251 1.690364v57.538869h-57.536721c-.93754 0-1.692515.75283-1.692515 1.69036v41.14995c0 .93752.754975 1.69252 1.692515 1.69252h57.536721v37.86183h-57.536721c-.93754 0-1.692515.75284-1.692515 1.69036v41.14996c0 .93752.754975 1.69465 1.692515 1.69465h57.536721v57.53673c0 .93751.75496 1.6925 1.69251 1.6925h41.14994c.93753 0 1.69253-.75499 1.69253-1.6925v-57.53673h36.49877v57.53673c0 .93751.75499 1.6925 1.6925 1.6925h41.14781c.93753 0 1.6925-.75499 1.69251-1.6925v-57.53673h57.53887c.93755 0 1.6925-.75713 1.6925-1.69465v-41.14996c0-.93752-.75495-1.69036-1.6925-1.69036h-57.53887v-37.86183h57.53887c.93755 0 1.6925-.755 1.6925-1.69252v-41.14995c0-.93753-.75495-1.69036-1.6925-1.69036h-57.53887v-57.538869c0-.93753-.75498-1.690364-1.69251-1.690364h-41.14781c-.93751 0-1.6925.752834-1.6925 1.690364v57.538869h-36.49877v-57.538869c0-.93753-.755-1.690364-1.69253-1.690364zm42.84247 103.76206h36.49877v37.86183h-36.49877z" style="fill:#fff;stroke-width:5;stroke:#000"/>
 <path d="m177.60907 63.444737c-1.75687 0-3.17187 1.411747-3.17187 3.168613v107.82385h-107.8206c-1.756864 0-3.171865 1.41175-3.171865 3.16861v77.11249c0 1.75687 1.415001 3.17187 3.171865 3.17187h107.8206v107.82059c0 1.75687 1.415 3.17187 3.17187 3.17187h77.10923c1.75687 0 3.17187-1.415 3.17187-3.17187v-107.82059h107.82059c1.75687 0 3.17187-1.415 3.17187-3.17187v-77.11249c0-1.75686-1.415-3.16861-3.17187-3.16861h-107.82059v-107.82385c0-1.756866-1.415-3.168613-3.17187-3.168613z" style="fill:#fff;stroke-width:12.7;stroke:#000"/>
</svg>
