<svg width="432.32736" height="432.32736" version="1.1" viewBox="0 0 432.32736 432.32735" xmlns="http://www.w3.org/2000/svg">
 <path d="m306.93243 147.58008c18.6159-4.56611 27.45892 7.92446 27.66317 18.7198l-47.76717 73.15136c-26.73577 41.45348-30.73328 72.51632-31.06044 114.14514 0 0-14.16145 9.79773-43.43279 9.79773s-43.45447-9.79773-43.45447-9.79773c-.31332-36.74504.85893-66.81175-20.17953-90.49723l-27.03747 36.1076c-19.14231.99128-25.484359-12.93694-23.658459-23.57879l37.805189-49.99638c21.06412-13.23108 38.84106-22.94945 58.18596-30.62852v-16.74379c-6.96452-9.73187-10.87469-15.3406-16.17928-23.17904-2.91443-13.86177-5.17101-28.97953-7.17843-41.78249-2.00782-12.8016 1.28989-23.280321 12.48059-33.713114 11.19043-10.432658 29.20506-10.650765 29.20506-10.650765s18.01463.217973 29.20506 10.650765c11.19071 10.432659 14.48842 20.911514 12.48061 33.713114-2.00743 12.80228-4.26402 27.92072-7.17845 41.78249-5.30458 7.83871-9.21475 13.44717-16.17926 23.17904v16.74379c12.23816 4.84348 24.39365 9.64581 34.26805 13.46067z" style="fill:#fff;stroke-width:12.7;stroke:#000"/>
</svg>
