<svg width="432.32736" height="432.32736" version="1.1" viewBox="0 0 432.32736 432.32735" xmlns="http://www.w3.org/2000/svg">
 <path d="m105.30758 256.58723s64.64819-27.01716 114.8229-47.28002c54.83971-22.14681 119.64738 39.56083 119.64738 39.56083s-50.42037 59.53163-121.57718 46.31511c-52.65733-9.78046-103.01986-34.25262-112.8931-38.59592z" style="fill:#fff;stroke-width:12.7;stroke:#000"/>
 <ellipse cx="242.80557" cy="249.83295" rx="42.237827" ry="43.685173" style="fill:#fff;stroke-width:12.7;stroke:#000"/>
 <path d="m87.581416 232.0344c4.332743-3.46732 76.388274-63.45601 124.35048-83.07368 49.10746-20.08609 89.52177-14.29787 116.25631-7.04652 15.06757 15.18737 13.53932 36.22856 11.72732 41.73868-25.13468-11.64327-64.00037-24.14435-115.78598-12.60115-50.57789 11.27399-131.69407 58.29321-136.54813 60.98267" style="fill:none;stroke-width:12.7;stroke:#000"/>
 <path d="m143.46826 240.6662c-5.23685 3.09259-13.63675 7.98108-14.2927 11.9167-1.32571 7.95426 1.30499 14.00282 11.57924 19.30566" style="fill:none;stroke-width:12.7;stroke:#000"/>
 <path d="m242.93876 249.96614 9.88819 15.81574-9.95917-15.77114 2.04676 18.53981-2.13006-18.53043-6.20006 17.59185 6.12094-17.61953-13.21888 13.1596 13.1596-13.21888-17.61953 6.12094 17.59185-6.20006-18.53043-2.13006 18.53981 2.04676-15.77114-9.95917 15.81574 9.88819-9.88818-15.81574 9.95916 15.77114-2.04676-18.53981 2.13006 18.53042 6.20006-17.59185-6.12093 17.61954 13.21887-13.1596-13.1596 13.21887 17.61954-6.12093-17.59185 6.20006 18.53042 2.13005-18.53981-2.04675 15.77114 9.95916z" style="stroke-width:3.7215121;stroke:#000"/>
</svg>
