<svg width="432.32736" height="432.32736" version="1.1" viewBox="0 0 432.32736 432.32735" xmlns="http://www.w3.org/2000/svg">
 <path d="m86.149836 308.50689s69.767214-54.72399 71.534974-55.07754c1.76777-.35356 17.32412-23.33453 17.32412-23.33453l33.23402-16.26345 60.81118-23.68808 23.68808-5.65686 40.30508-19.44543 6.01041 2.82843-8.48528 14.14213-4.24264 6.71752 7.07107 3.18198 3.18198 9.19238-4.94975 11.66727-12.72792 19.79899-17.67767 19.79899-173.30745 130.52749z" style="fill:#fff"/>
 <path d="m86.569681 308.4406s29.094629-21.31596 41.632959-31.2272 27.76855-22.29083 32.89596-29.1089 9.79579-19.25571 26.88447-25.7713c17.08869-6.51559 45.29774-18.09787 63.52126-28.17531 18.22352-10.07745 23.81717-2.50637 34.59611-7.5156s44.97041-23.15566 56.47526-27.66733c1.92029-.75305-.93802 11.74669-3.90838 18.59613-7.68038 8.93223-5.50513 3.20719-11.20797 9.79587s7.30759-9.03255 9.07446 2.32853c-1.58383 18.38535 13.09853 7.37179-9.23299 29.64855-6.42047 6.71178-1.95263 8.22149-6.09686 13.37458s-11.02798 5.00484-11.45389 9.23208" style="fill:none;stroke-width:12.7;stroke:#000"/>
 <path d="m248.25348 210.41517 2.76919 16.14007c4.9177 4.00862 16.86181 4.87939 21.30641-2.31919l-7.24006-39.71367-1.06385-9.48897c.12749-15.5734-.14381-29.13914 6.66841-39.69182l12.98084-17.8579 11.93437-14.5875c-1.61013-7.632387-7.98001-8.597216-12.1443-6.712226l-15.23954 18.812706c-4.88962-2.80358-9.53151-5.15782-14.41941-7.17879v-7.09641c2.83389-4.124603 4.42494-6.501712 6.58339-9.823822 1.18589-5.874936 2.1041-12.2822 2.92091-17.708393.81699-5.425618-.52486-9.866742-5.07838-14.2884-4.5534-4.4216-11.88359-4.514046-11.88359-4.514046s-7.33019.09245-11.8836 4.514046c-4.55352 4.421658-5.89537 8.862782-5.07838 14.2884.81682 5.426193 1.73503 11.833457 2.92092 17.708393 2.15844 3.32211 3.7495 5.699219 6.58338 9.823822v7.09641c-4.8879 2.02097-9.52979 4.37521-14.41941 7.17879l-15.23954-18.812705c-4.16429-1.884991-10.53416-.920161-12.14429 6.712225l11.93437 14.5875 12.98084 17.8579c6.81222 10.55268 6.54091 24.11842 6.6684 39.69182l-1.06384 9.48897-7.24006 39.71367c4.44461 7.19858 16.38871 6.32781 21.3064 2.31919l2.7692-16.14007c.31208-1.3613.53359-2.71459 1.90561-2.82185 1.37202.10726 1.59353 1.46055 1.90561 2.82185z" style="fill:#fff;stroke-width:10;stroke:#000"/>
 <path d="m314.5588 240.57678c-21.19547 15.15722-49.05919 32.41631-58.11319 37.79317-24.05084 17.10837-37.43653 19.8878-56.61277 33.95346-4.17558 1.63355-.16506 8.95811-3.26353 23.82597-12.52606 8.49243-29.84085 20.18394-44.94018 30.63371-1.62476 2.39787-8.80758 9.79311-8.80758 9.79311l81.6182-.0933c8.03634-25.76949 26.4401-68.03304 27.42694-69.857 2.99401-2.86959 35.92812-34.43516 35.92812-34.43516l20.44472-11.8848c3.41871-1.67615 5.29182-8.4806 4.7753-12.02404z" style="stroke-width:12.7;stroke:#000"/>
</svg>
