<svg width="432.32736" height="432.32736" version="1.1" viewBox="0 0 432.32736 432.32735" xmlns="http://www.w3.org/2000/svg">
 <path d="m132.76701 276.98557h43.84063m-43.84063-84.71263h140.00715m-129.52187-27.26057h93.3381m-81.19596-27.26058h93.3381m-115.96552-27.26059h93.3381m-114.55129-49.941122h192.33304v248.90158h-192.33304z" style="fill:#fff;stroke-width:12.7;stroke:#000"/>
 <path d="m254.87436 302.13413-22.41421 67.18198 16.41421-8.18198 13 15.68752 4-75.68752 9.8008 75.68752 12.1992-16.68752 18 5-29-72-21.19208.13515z" style="stroke-width:1px;stroke:#000"/>
 <path transform="rotate(-30,266.83999,314.39883)" d="m303.11275 339.08906-20.35254-10.73106-12.69255 19.19063-8.69316-21.30283-22.05856 6.54226 7.03385-21.90676-21.10312-9.16731 19.46964-12.26028-10.27329-20.58739 22.79536 3.12292 5.36352-22.37441 15.45489 17.04488 18.49068-13.69218.8829 22.99134 22.96585 1.39676-14.10221 18.1799 16.69504 15.83215-22.48874 4.86188z" style="fill:#fff;stroke-width:12.7;stroke:#000"/>
</svg>
