<svg width="432.32736" height="432.32736" version="1.1" viewBox="0 0 432.32736 432.32735" xmlns="http://www.w3.org/2000/svg">
 <path d="m209.27579 346.45393c-2.28653 1.2147-5.28759 19.00671-7.78847 20.79305-2.50088 1.78635-9.21754.71455-10.78952-.9289-1.57199-1.64343 0-20.36434-1.21472-22.15068-1.21472-1.78635-11.07534-5.21613-13.57622-4.21577-2.50089 1.00034-10.93245 17.72055-13.07605 18.43508-2.14362.71454-9.50336-1.50053-10.28935-4.57304-.78601-3.07252 4.64449-18.7209 4.0014-21.2218-.64308-2.50088-8.36009-6.85956-11.2897-7.14537-2.9296-.28582-14.43367 13.86204-17.86346 14.14785-3.42978.28582-8.07428-4.7874-8.64591-6.78811s9.57481-17.36328 9.36045-19.6498-6.14503-9.71772-9.21754-10.07499-16.57729 9.64627-20.007071 9.36045c-3.429783-.28582-7.502649-6.5023-7.145383-8.71737.357265-2.21506 13.576224-14.64803 13.933494-16.72019.35727-2.07217-3.42979-10.50372-6.788111-11.93279-3.358334-1.42907-17.148916 4.07287-20.793066 3.7156-3.644145-.35727-5.776368-7.22755-4.787407-10.36081.988966-3.13326 16.853967-10.40893 17.864479-12.73311 1.010511-2.32417-.707356-11.41875-3.233636-13.03557-2.526267-1.61682-19.401781.10104-22.130157-1.61682-2.728375-1.71786-3.738886-9.70089-1.818916-11.82296 1.919963-2.12207 19.098626-4.54729 20.614394-6.87147.735775-1.12819 1.257252-3.80405 1.437309-6.57129-.180057-2.76723-.701534-5.4431-1.437309-6.57129-1.515768-2.32417-18.694428-4.74939-20.614395-6.87146-1.919969-2.12208-.90946-10.1051 1.818916-11.82296 2.728377-1.71788 19.603891 0 22.130158-1.61682 2.52628-1.61682 4.244147-10.71141 3.233636-13.03558-1.010512-2.32417-16.875513-9.59984-17.864477-12.73311-.988965-3.13326 1.143261-10.00353 4.787406-10.3608 3.644149-.35727 17.434731 5.14468 20.793065 3.7156 3.358321-1.42908 7.145381-9.86063 6.788121-11.93279-.35728-2.07216-13.576239-14.50512-13.933504-16.72019-.357266-2.21508 3.7156-8.43156 7.145383-8.71737 3.429781-.28581 16.934561 9.71772 20.007071 9.36045s9.00318-7.78846 9.21755-10.07499c.21435-2.28653-9.93209-17.64909-9.36045-19.649796.57162-2.000709 5.21612-7.073935 8.6459-6.788118 3.42979.285817 14.93386 14.433674 17.86346 14.147854 2.92961-.28582 10.64662-4.6445 11.2897-7.145379.64309-2.500883-4.78741-18.149276-4.0014-21.221787.78599-3.072514 8.14573-5.287582 10.28935-4.573045 2.1436.714539 10.57516 17.434731 13.07605 18.435091 2.50088 1.000349 12.3615-2.429434 13.57622-4.215774 1.21472-1.786352-.35727-20.507252 1.21472-22.150691 1.57198-1.643438 8.28864-2.715245 10.78952-.9289 2.50088 1.786346 5.50194 19.578347 7.78847 20.793065 2.28652 1.214717 6.88789.857451 6.88789.857451s4.60137.357266 6.88789-.857451c2.28653-1.214718 5.28758-19.006719 7.78847-20.793065 2.50088-1.786345 9.21754-.714538 10.78952.9289 1.57198 1.643439 0 20.364339 1.21472 22.150691 1.21472 1.78634 11.07534 5.216123 13.57622 4.215774 2.50089-1.00036 10.93245-17.720552 13.07605-18.435091 2.14362-.714537 9.50336 1.500531 10.28935 4.573045.78601 3.072511-4.64449 18.720904-4.0014 21.221787.64308 2.500879 8.36009 6.859559 11.2897 7.145379 2.9296.28582 14.43367-13.862037 17.86345-14.147854 3.42979-.285817 8.07429 4.787409 8.64592 6.788118.57163 2.000706-9.57482 17.363266-9.36046 19.649796.21437 2.28653 6.14504 9.71772 9.21755 10.07499s16.57729-9.64626 20.00707-9.36045 7.50265 6.50229 7.14538 8.71737c-.35726 2.21507-13.57622 14.64803-13.93349 16.72019-.35728 2.07216 3.42979 10.50371 6.78811 11.93279 3.35833 1.42908 17.14891-4.07287 20.79307-3.7156 3.64414.35727 5.77637 7.22754 4.78741 10.3608-.98897 3.13327-16.85397 10.40894-17.86449 12.73311-1.01051 2.32417.70736 11.41876 3.23363 13.03558 2.52628 1.61682 19.40179-.10105 22.13016 1.61682 2.72838 1.71786 3.7389 9.70088 1.81893 11.82296-1.91998 2.12207-19.09863 4.54729-20.6144 6.87146-.73578 1.12819-1.25725 3.80406-1.43731 6.57129 0 0-.35727 4.6014.85744 6.88793 1.21472 2.28651 19.00673 5.28758 20.79307 7.78846 1.78634 2.50089.71454 9.21754-.9289 10.78953-1.64345 1.57198-20.36434 0-22.15068 1.21472-1.78636 1.21471-5.21614 11.07534-4.21578 13.57622 1.00035 2.50088 17.72055 10.93243 18.43508 13.07605.71455 2.14362-1.50053 9.50336-4.57304 10.28935-3.07252.78599-18.72091-4.6445-21.22179-4.00142-2.50089.6431-6.85957 8.3601-7.14539 11.28971-.2858 2.92961 13.86206 14.43364 14.14786 17.86343.28582 3.42978-4.78739 8.07428-6.7881 8.6459-2.00071.57164-17.36329-9.5748-19.6498-9.36045-2.28653.21437-9.71773 6.14504-10.07499 9.21754-.35727 3.07252 9.64626 16.5773 9.36044 20.00708-.28581 3.42978-6.5023 7.50265-8.71736 7.14538-2.21507-.35726-14.64802-13.57622-16.72018-13.9335-2.07216-.35726-10.50372 3.42978-11.93279 6.78812-1.42908 3.35833 4.07286 17.14892 3.7156 20.79307-.35727 3.64414-7.22753 5.77638-10.3608 4.7874-3.13329-.98892-10.40894-16.85395-12.73308-17.86443-2.32419-1.01052-11.41877.70733-13.03557 3.2336-1.61686 2.52627.10104 19.40179-1.61686 22.13018-1.71787 2.72839-9.70086 3.73887-11.82293 1.81894-2.12206-1.92001-4.54726-19.09866-6.87145-20.61445-1.12817-.73575-4.11378-1.56694-6.88105-1.74701 0 0-4.60137-.35726-6.88789.85746z"/>
 <circle cx="216.16368" cy="216.16368" r="87.23101" style="fill:#fff"/>
 <circle cx="216.16368" cy="216.16368" r="115.09548" style="fill:none;stroke-width:12.7;stroke:#fff"/>
 <circle cx="216.16368" cy="216.16368" r="29.588123" style="fill:#fff;stroke-width:12.7;stroke:#000"/>
</svg>
