<svg width="432.32736" height="432.32736" version="1.1" viewBox="0 0 432.32736 432.32735" xmlns="http://www.w3.org/2000/svg">
 <path d="m143.34911 285.22821-43.900976-43.90097v-50.27503l43.900976-43.90099m-12.34805 150.33407-51.695149-51.69514v-59.20086l51.695149-51.69515m157.97719 12.25709 43.90098 43.90097v50.27503l-43.90098 43.90099m12.34805-150.33407 51.69515 51.69514v59.20086l-51.69515 51.69515m-16.12413-8.50705-43.90097 43.90098h-50.27503l-43.90099-43.90098m150.33407 12.34805-51.69514 51.69515h-59.20086l-51.69515-51.69515m12.25709-157.97719 43.90097-43.900975h50.27503l43.90099 43.900975m-150.33407-12.34805 51.69514-51.695148h59.20086l51.69515 51.695148" style="fill:none;stroke-width:12.7;stroke:#000"/>
 <path d="m90.724153 226.97808a15.25705 15.25705 0 0 0 0-21.57673 15.25705 15.25705 0 0 0-21.576711 1e-5 15.25705 15.25705 0 0 0-1.9e-5 21.57672 15.25705 15.25705 0 0 0 21.57673 0zm250.87906-21.57672a15.25705 15.25705 0 0 0 0 21.57673 15.25705 15.25705 0 0 0 21.57671-1e-5 15.25705 15.25705 0 0 0 2e-5-21.57672 15.25705 15.25705 0 0 0-21.57673 0zm-114.65117 136.20185a15.25705 15.25705 0 0 0-21.57673 0 15.25705 15.25705 0 0 0 1e-5 21.57671 15.25705 15.25705 0 0 0 21.57672 2e-5 15.25705 15.25705 0 0 0 0-21.57673zm-21.57672-250.87906a15.25705 15.25705 0 0 0 21.57673 0 15.25705 15.25705 0 0 0-1e-5-21.576711 15.25705 15.25705 0 0 0-21.57672-1.9e-5 15.25705 15.25705 0 0 0 0 21.57673zm49.33001 86.897876a54.506129 54.506129 0 0 1 0 77.08331 54.506129 54.506129 0 0 1-77.08329 0 54.506129 54.506129 0 0 1 0-77.0833 54.506129 54.506129 0 0 1 77.08329-1e-5z" style="fill:#fff;stroke-width:12.7;stroke:#000"/>
</svg>
