<svg width="432.32736" height="432.32736" version="1.1" viewBox="0 0 432.32736 432.32735" xmlns="http://www.w3.org/2000/svg">
 <path d="m234.42277 70.018963c6.99644 6.522508 9.05817 13.073899 7.80288 21.077472-1.25504 8.004-2.66586 17.456065-4.48797 26.122455-3.31643 4.90077-5.76107 8.40718-10.11529 14.49156v10.46824c12.09445 4.80079 23.20861 10.87689 36.37791 19.14898l23.63584 31.25778c1.14122 6.6533-2.82366 15.36124-14.79129 14.74148l-16.90385-22.5745c-13.15327 14.80818-12.42037 33.60592-12.61626 56.57895l1.63457 13.99762 11.1243 58.58344c-6.82893 10.61937-25.18102 9.33427-32.73709 3.42113l-4.25484-23.80894c-.47953-2.00812-.81984-4.00441-2.92795-4.16264-2.10809.15823-2.44844 2.15452-2.92795 4.16264l-4.25484 23.80894c-7.55599 5.91331-25.90799 7.19782-32.73708-3.42113l11.12429-58.58344 1.63457-13.99762c-.19589-22.97303.53701-41.77077-12.61626-56.57895l-16.90385 22.5745c-11.96779.61976-15.93285-8.08818-14.79129-14.74148l23.63584-31.25778c13.16931-8.27209 24.28346-14.34802 36.37792-19.14898v-10.46824c-4.35423-6.08438-6.79887-9.59096-10.1153-14.49156-1.82211-8.66639-3.23293-18.118028-4.48796-26.122455-1.2553-8.003573.80643-14.55488 7.80287-21.077472 6.99627-6.522509 18.25904-6.658869 18.25904-6.658869s11.26277.136276 18.25904 6.658869z" style="fill:#fff;stroke-width:12.7;stroke:#000"/>
 <path d="m318.67878 215.62525c3.83755 3.57759 4.9684 7.17102 4.27988 11.56098-.68839 4.39019-1.46223 9.57464-2.46165 14.32815-1.81906 2.68807-3.15994 4.61133-5.54823 7.94861v5.74182c6.6338 2.63323 12.72991 5.96597 19.95326 10.50321l12.96424 17.14487c.62596 3.64933-1.54877 8.42563-8.11301 8.0857l-9.27175-12.38211c-7.21456 8.12228-6.81257 18.43283-6.92001 31.03352l.89656 7.67768 6.10167 32.13298c-3.74566 5.82472-13.81177 5.11984-17.95627 1.87649l-2.33378-13.05919c-.26302-1.10145-.44968-2.19642-1.60598-2.2832-1.15628.0868-1.34297 1.18175-1.60598 2.2832l-2.33378 13.05919c-4.14445 3.24345-14.21051 3.948-17.95626-1.87649l6.10166-32.13298.89657-7.67768c-.10745-12.60069.29454-22.91124-6.92002-31.03352l-9.27175 12.38211c-6.56433.33993-8.73916-4.43637-8.11302-8.0857l12.96425-17.14487c7.22336-4.53724 13.31947-7.86988 19.95327-10.50321v-5.74182c-2.38829-3.33728-3.72918-5.26063-5.54824-7.94861-.99942-4.75351-1.77326-9.93773-2.46164-14.32815-.68853-4.38996.44233-7.98335 4.27987-11.56098 3.83745-3.5776 10.01507-3.65239 10.01507-3.65239s6.17762.0747 10.01507 3.65239z" style="fill:#fff;stroke-width:7;stroke:#000"/>
 <path d="m133.67878 215.62525c3.83755 3.57759 4.9684 7.17102 4.27988 11.56098-.68839 4.39019-1.46223 9.57464-2.46165 14.32815-1.81906 2.68807-3.15994 4.61133-5.54823 7.94861v5.74182c6.6338 2.63323 12.72991 5.96597 19.95326 10.50321l12.96424 17.14487c.62596 3.64933-1.54877 8.42563-8.11301 8.0857l-9.27175-12.38211c-7.21456 8.12228-6.81257 18.43283-6.92001 31.03352l.89656 7.67768 6.10167 32.13298c-3.74566 5.82472-13.81177 5.11984-17.95627 1.87649l-2.33378-13.05919c-.26302-1.10145-.44968-2.19642-1.60598-2.2832-1.15628.0868-1.34297 1.18175-1.60598 2.2832l-2.33378 13.05919c-4.14445 3.24345-14.21051 3.948-17.95626-1.87649l6.10166-32.13298.89657-7.67768c-.10745-12.60069.29454-22.91124-6.92002-31.03352l-9.271749 12.38211c-6.56433.33993-8.73916-4.43637-8.11302-8.0857l12.96425-17.14487c7.223359-4.53724 13.319469-7.86988 19.953269-10.50321v-5.74182c-2.38829-3.33728-3.72918-5.26063-5.54824-7.94861-.99942-4.75351-1.77326-9.93773-2.46164-14.32815-.68853-4.38996.44233-7.98335 4.27987-11.56098 3.83745-3.5776 10.01507-3.65239 10.01507-3.65239s6.17762.0747 10.01507 3.65239z" style="fill:#fff;stroke-width:7;stroke:#000"/>
 <path d="m226.17878 233.68918c3.83755 3.57759 4.9684 7.17102 4.27988 11.56098-.68839 4.39019-1.46223 9.57464-2.46165 14.32815-1.81906 2.68807-3.15994 4.61133-5.54823 7.94861v5.74182c6.6338 2.63323 12.72991 5.96597 19.95326 10.50321l12.96424 17.14487c.62596 3.64933-1.54877 8.42563-8.11301 8.0857l-9.27175-12.38211c-7.21456 8.12228-6.81257 18.43283-6.92001 31.03352l.89656 7.67768 6.10167 32.13298c-3.74566 5.82472-13.81177 5.11984-17.95627 1.87649l-2.33378-13.05919c-.26302-1.10145-.44968-2.19642-1.60598-2.2832-1.15628.0868-1.34297 1.18175-1.60598 2.2832l-2.33378 13.05919c-4.14445 3.24345-14.21051 3.948-17.95626-1.87649l6.10166-32.13298.89657-7.67768c-.10745-12.60069.29454-22.91124-6.92002-31.03352l-9.27175 12.38211c-6.56433.33993-8.73916-4.43637-8.11302-8.0857l12.96425-17.14487c7.22336-4.53724 13.31947-7.86988 19.95327-10.50321v-5.74182c-2.38829-3.33728-3.72918-5.26063-5.54824-7.94861-.99942-4.75351-1.77326-9.93773-2.46164-14.32815-.68853-4.38996.44233-7.98335 4.27987-11.56098 3.83745-3.5776 10.01507-3.65239 10.01507-3.65239s6.17762.0747 10.01507 3.65239z" style="fill:#fff;stroke-width:7;stroke:#000"/>
</svg>
