<svg width="432.32736" height="432.32736" version="1.1" viewBox="0 0 432.32736 432.32735" xmlns="http://www.w3.org/2000/svg">
 <path d="m332.78959 209.41056s40.17659 62.81129 40.74246 69.03584c.56587 6.22454.0882 15.77121-14.11635 32.57663-14.20457 16.8054-33.92569 27.16386-49.73078 33.56592s-42.15625 19.96774-75.66453 13.97607c-32.08363-5.73693-48.16204-15.8214-73.1335-26.01675-25.52395-10.42091-62.910293-36.20327-72.513382-43.40559-17.262772-14.63001-39.929602-36.96173-37.527404-61.19995.848801-6.79042 9.195347-19.80536 9.195347-19.80536s3.524075-38.63318 11.126517-60.64026c7.602452-22.00708 26.808629-38.41236 32.010322-42.41364 5.20167-4.0013 18.00578-13.60439 22.80733-17.205549 4.80154-3.601159 19.60631-14.004505 28.80926-15.204892 9.20297-1.200387 20.40658.800257 25.60825.400128 5.20166-.400128 25.60824 2.800902 46.0148 9.202961 20.40656 6.40206 46.41493 22.007082 58.81893 34.411082 12.40398 12.40398 22.80733 27.20875 30.80991 44.41428 8.00258 17.20554 16.74282 48.30908 16.74282 48.30908z" style="fill:none;stroke-width:12.238477;stroke:#000"/>
 <path d="m332.78959 209.41056s10.666 51.52305 6.86478 61.72634c-3.80123 10.20327-7.60245 14.40463-16.40529 22.80733-8.80283 8.4027-69.42233 35.41138-79.22548 36.01158-9.80316.6002-70.73307-8.99729-99.63205-20.00643-28.899-11.00915-58.807169-23.08802-72.423321-42.41364-15.365793-21.80894-12.428261-52.73657-12.428261-57.53813m66.445652-119.71892s51.21647 16.805417 80.826 68.422007c29.60953 51.61662 36.81186 126.44069 37.6121 136.44392.80026 10.00321 0 32.21037 0 32.21037m76.02447-36.21166c0-3.20103 2.80089-37.6121-13.20425-79.2255-16.00515-41.61338-48.01545-84.8273-63.62046-102.43294-15.60504-17.605682-49.50295-35.166968-49.50295-35.166968m54.30449 248.03545s-5.20168-66.02124 4.00127-83.22679c9.20297-17.20552 27.11168-27.62898 37.21199-27.60887 8.63757.0171 15.20489-.80026 23.20745 18.80605 8.00258 19.60631 6.85663 69.51354 6.85663 69.51354m-43.66847-83.51805s-15.20489-44.81442-47.21518-84.02704c-32.01031-39.212615-76.82473-56.81828-76.82473-56.81828" style="fill:none;stroke-width:12.238477;stroke:#000"/>
</svg>
