<svg width="432.32736" height="432.32736" version="1.1" viewBox="0 0 432.32736 432.32735" xmlns="http://www.w3.org/2000/svg">
 <path transform="matrix(.88910988 .4576938 -.67221683 .74035433 0 0)" d="m320.24066 50.203354h59.29612v37.476658h-59.29612zm76.13325 1.292929 59.29612 15.346963v37.476654l-59.29612-15.346959z" style="fill:#fff;stroke-width:12.922062;stroke:#000"/>
 <path d="m220.98818 257.71074-45.10326-23.21813-27.45149-42.65911 66.21337-72.92491 27.45148 42.65911 45.10326 23.21814z" style="fill:#fff;stroke-width:12.7;stroke:#000"/>
 <path d="m282.50272 70.37139 17.54469 27.264135 28.82621 14.839085-17.54469-27.264115zm-22.37926 24.585284 17.54469 27.264136 28.82621 14.83909-17.54469-27.26412zm-90.68706 197.86583-42.11688 46.38595m-14.14716-14.70849-45.107747 49.67997m111.66391-121.42361-45.10775 49.67997m-9.35331-21.04801-40.670691 44.79315m12.715462-242.48246 42.404279 38.501657-25.19244 27.746-42.404279-38.50165zm56.505249 47.165157 52.72075 27.13946-25.19244 27.74601-52.72075-27.13946zm79.54189-6.224 17.54469 27.26413 28.82621 14.83909-17.54469-27.26412zm8.73891 36.92757-66.21336 72.92491" style="fill:#fff;stroke-width:12.7;stroke:#000"/>
</svg>
