<svg width="432.32736" height="432.32736" version="1.1" viewBox="0 0 432.32736 432.32735" xmlns="http://www.w3.org/2000/svg">
 <path d="m162.6329 84.544656c6.83573 6.37268 8.8501 12.77358 7.62365 20.593314-1.22622 7.82013-2.60463 17.05508-4.38488 25.52241-3.24025 4.78819-5.62874 8.21406-9.88294 14.15868v10.22777c11.81663 4.69052 22.6755 10.62705 35.54229 18.70912l23.09291 30.53978c1.11501 6.50047-2.75879 15.00838-14.45152 14.40287l-16.51557-22.05596c-12.85112 14.46803-12.13506 32.83398-12.32646 55.27931h-53.0742c-.19139-22.44533.52467-40.81128-12.32646-55.27931l-16.515573 22.05596c-11.692889.60551-15.566868-7.9024-14.451532-14.40287l23.09292-30.53978c12.866815-8.08207 23.725675-14.01844 35.542305-18.70912v-10.22777c-4.25421-5.94462-6.6427-9.37065-9.88294-14.15868-1.78025-8.46733-3.15867-17.70186-4.38487-25.52241-1.22646-7.819734.78791-14.220544 7.62363-20.593314 6.83556-6.37269 17.83962-6.50591 17.83962-6.50591s11.00406.13314 17.83962 6.50591z" style="fill:#fff;stroke-width:12.7;stroke:#000"/>
 <path d="m246.20991 134.79094h96.17451v63.20041h-96.17451z" style="fill:#fff;stroke-width:12.7;stroke:#000"/>
 <path d="m236.82144 235.6224h114.95145m-114.95145 1.98369h114.95145m-57.47572-8.81188v-28.87129" style="fill:none;stroke-width:12.7;stroke:#000"/>
 <rect x="66.138474" y="250.62959" width="300.05042" height="103.66254" rx="3" style="fill:#fff;stroke-width:12.7;stroke:#000"/>
</svg>
