<svg width="432.32736" height="432.32736" version="1.1" viewBox="0 0 432.32736 432.32735" xmlns="http://www.w3.org/2000/svg">
 <path d="m373.26602 205.20759-81.05838 35.05228s-70.10454-26.28921-107.34758-17.52614-63.53225 43.81534-76.67685 70.10454c-13.144599 26.28921-32.861502 35.05228-32.861502 35.05228 5.349878-7.41512 16.894232-14.94419 54.769172-15.33537 37.24106-.38464 74.48608 4.38153 105.15682-13.14461 30.67074-17.52613 46.00611-43.81534 65.72301-56.95994s72.29531-37.24304 72.29531-37.24304z" style="fill:#fff;stroke-width:12.7;stroke:#000"/>
 <path d="m292.20764 240.25987c-4.93166 3.05618-28.09109 12.53482-72.70505 15.06176-52.99456 3.00162-91.39727 37.9531-112.3102 53.05688" style="fill:none;stroke-width:12.7;stroke:#000"/>
 <path d="m336.04173 219.7406-54.04907-32.99421s-12.9097-50.87147-33.35437-68.9281c-20.44466-18.056635-52.13117-19.411877-73.21255-16.63163-21.08138 2.78024-34.37002-5.15192-34.37002-5.15192 6.61676.164541 15.83089 3.862527 31.52927 25.5877 15.43564 21.36158 27.79401 44.75793 50.79329 55.56002s44.97516 9.28741 60.88286 15.49064c15.9077 6.20322 51.78059 27.0675 51.78059 27.0675z" style="fill:#fff;stroke-width:12.7;stroke:#000"/>
 <path d="m281.99266 186.74639c-3.84046-1.64295-18.96243-11.28143-38.68904-36.05683-23.43219-29.42938-60.00446-37.8221-77.57161-43.94317" style="fill:none;stroke-width:12.7;stroke:#000"/>
</svg>
