<svg width="432.32736" height="432.32736" version="1.1" viewBox="0 0 432.32736 432.32735" xmlns="http://www.w3.org/2000/svg">
 <path d="m217.40774 299.24184c103.71988-17.99128 154.06542 53.94462 154.06542 53.94462-29.41143 24.31521-68.17671 14.42643-47.31835-8.30248 7.34852-8.00753 19.83651-.17859 7.34852-8.00753-4.20805-2.6381-16.35642 1.82526-26.3097 6.73076-13.26411 6.53726-20.0218 18.35369-39.84517 22.59734-19.82336 4.24365-38.23863-1.65278-22.19612-20.37482 8.89341-10.37887 17.79716-.94271 11.553-7.152-5.04519-5.017-29.39645 7.71005-38.18916 15.02193-29.33313 24.393-68.09841 14.50422-47.24004-8.2247 7.34852-8.00752 19.8365-.17858 7.34852-8.00752-4.20806-2.6381-16.35643 1.82526-26.30971 6.73075-17.98667 8.8648-24.82554 28.23664-65.86451 23.43778 0 0 66.83395-56.92435 132.9573-68.39413z" style="fill:#fff;stroke-width:12.7;stroke:#000"/>
 <path d="m284.7753 326.94091c-2.49541-3.26681-48.79969-33.32454-81.41772-76.99889-27.58488-36.93513-37.87588-75.61203-39.11795-85.08843-1.24208-9.47641-2.04933-15.80906-.29277-18.73666s-1.61017-7.75815-4.83054-11.27127c-3.22036-3.51312-6.73348-4.97691-7.90452 2.04933-1.17105 7.02624 3.22035 12.00317 3.80588 15.51629.58552 3.51312 1.60222 8.63264 3.07398 16.39456 1.47176 7.76193 8.19472 40.72026 35.11978 84.35655 22.55619 36.55586 59.00262 62.60907 69.24923 70.51359 8.27936 7.85473 24.81005 6.53174 22.31463 3.26493z" style="stroke-width:.82805085"/>
 <path d="m314.1824 116.77229 28.70327 49.77909-28.93368-49.63386 3.22903 57.98565-3.49778-57.9687-22.98493 52.90841 22.73941-53.02362-43.93334 35.71048 43.7673-35.93147-54.81713 10.33172 54.7686-10.60785-53.14299-17.413919 53.22309 17.145899-39.29443-41.170235 39.48481 40.971735-16.44398-55.494953 16.70103 55.411433 10.17357-57.106438-9.90875 57.157038 34.4605-45.635526-34.24856 45.808656 50.85294-23.710066-50.74244 23.966066 55.59557 3.64708-55.61182-3.36686 47.60193 30.16873z" style="fill:none;stroke-width:12.7;stroke:#000"/>
 <circle cx="313.82144" cy="116.3959" r="36.305088" style="fill:#fff"/>
 <path d="m173.99945 71.927446c-.46529.02697-2.50643 6.240538-3.57306 10.258268-1.03232 3.888411-8.75426 31.600326-12.1133 48.833556.28354-8.4676.32634-18.0786-1.29579-12.5259-1.42874 4.89068-2.99125-28.984235-4.33216-21.454522-.76726 4.308372-4.66981-11.141715-7.42659-17.741243-3.07672-7.365503 4.598 21.388565 9.22682 48.161495-1.65787-6.49603-5.37823-17.02917-13.55898-27.944729-7.31727-9.76346-15.66624-13.543542-27.49665-15.447838-11.45227-1.843429-21.572117.550845-12.56618.230472 5.75164-.204609 12.15981 1.638325 16.82098 3.3845 6.90042 2.585058 11.33586 6.314405 7.41849 5.959953-5.89022-.532972 15.98808 8.371622 9.73771 8.967322-3.46268.33001 17.19167 15.61035 10.3324 13.17215-1.68893-.60032-.24165 3.52633 1.92756 8.36942-8.69909-9.82805-14.34413-18.82284-29.48548-22.16045-14.02841-3.092288-20.062238-1.11105-30.118839 2.68181-9.307022 3.51016-22.518801 14.19577-13.718517 8.25174 5.166074-3.48933 10.654325-4.93628 15.520367-6.55787 6.276866-2.09174 9.845314-2.46838 8.516046-1.1604-4.539127 4.46648 26.944443-1.48255 20.935563 1.11689-4.31402 1.86622 23.00424 12.46585 16.0329 12.50493-1.85474.0105.28599 2.25397 3.83575 5.15734-6.89005-2.89053-15.08955-5.64934-22.8599-6.52242-18.360118-2.06294-45.384571 8.04543-57.76218 15.26572-12.377612 7.22027 2.269231 0 6.395098-1.03148 4.125872-1.03146-.825172 5.56993 2.681817 3.09443 3.50699-2.47554 26.400444-12.19264 21.660816-8.04547-4.951044 4.33216 1.031468.82517 9.90209-2.88811 8.870619-3.71328 21.454529-.82517 19.597879.4126-1.85664 1.23774 11.48636 1.41179 18.50035 3.88733 5.19781 1.96784 10.71929 4.07649 15.52359 6.55144-4.55957-1.68751-21.16323-8.54519-40.83164-4.86885-22.073388 4.12588-40.133337 33.82822-36.926521 30.32514 7.128746-7.78731 22.692285-20.21676 20.010472-15.05941-2.681816 5.15734 21.388549-17.34885 17.947529-8.87062-1.56888 3.86554 20.6653-7.39914 20.35215-.9912-3.89859.70814-8.06422 1.95821-12.71928 4.08559-11.07646 5.06196-25.27096 26.40557-17.84439 18.97901 7.42656-7.42656 20.5262-15.8846 19.08214-12.37761-1.44405 3.50699 13.61538-6.3951 11.96503-3.30069-1.39989 2.62477 9.60796-.65779 17.32543.80259-6.5964 1.14332-18.77076 4.41962-30.52821 13.63796-14.78336 11.59074-29.727575 52.84621-27.849627 49.71672 2.535941-4.22598 13.866787-25.27901 14.279367-22.5972.4126 2.68181 9.97886-16.36707 9.23809-13.09157-3.31966 14.67867 19.47131-20.75072 16.54377-13.05775-5.7537 15.11961 13.28617-11.40453 20.98553-6.45956.49662.31894.93292.57502 1.35703.81872-1.66113 1.63096-3.29665 4.08364-6.49825 9.62167-4.71288 8.15217-6.37693 18.96508-6.80769 31.35662-.45514 13.09293 3.72796 38.56653 3.3007 30.32514-.3776-7.28379.44507-34.95584 1.03146-28.4685 1.16483 12.88637 3.8012-23.22808 4.74475-20.21677 2.97358 9.48986 4.43532-16.60662 8.35491-15.67831.95037-2.93636.75718-5.32751 3.4407-11.17379 1.36873.93634 3.54469 2.45348 7.28655 3.95353 13.45975 5.8386 12.79021 20.21676 13.51223 10.52096.73423-9.85973 11.13984 22.58915 10.8304 15.36887-.24302-5.67068 15.29813 32.81173 13.30594 26.09613-6.3951-21.55767-9.33118-30.23041-17.94753-43.52793-1.57198-2.42603-5.01188-5.57507-9.20425-8.44999 5.17845 1.95421 9.17747 3.2186 8.79165 1.22973-1.14193-5.88671 18.28465 13.8488 16.0909 7.63284-2.54452-7.2099 17.09751 5.12438 23.482 11.4767 7.80161 7.76228 3.39759-1.45904-15.23026-14.57109-14.08306-9.91301-37.36492-13.33699-49.54429-14.49051 1.3953-.09 3.33462-.16002 5.25565-.0129 2.3041.17643 5.7429 1.87675 3.02994-.34971-3.3526-2.75143 28.28699-8.49195 20.21676-8.66434-8.00693-.17105 13.85025-7.25039 28.86821-8.19212 11.52427-.72263-3.40011-2.2605-21.85423 2.62218-14.40862 3.81233-27.42616 9.12956-34.78141 12.37924 6.62255-4.21573 21.0764-14.07824 14.56465-11.65721-7.10983 2.6434 23.20518-14.4911 17.74123-12.68705-7.46626 2.46517 1.32707-7.34742 9.26872-12.3921 9.32289-5.92211 19.30472-13.194625 6.20331-6.174324-18.03721 9.665114-35.18762 22.473814-49.00277 38.170754 3.25174-10.36951 9.16941-22.67794 4.13394-17.02566-6.70602 7.52744 10.52096-22.382855 5.36363-16.81292-5.15735 5.56991-1.81254-13.159523.82517-26.096141.67918-3.331094.79329-4.597457.58181-4.585196z"/>
</svg>
