<svg width="432.32736" height="432.32736" version="1.1" viewBox="0 0 432.32736 432.32735" xmlns="http://www.w3.org/2000/svg">
 <path d="m205.95893 144.60843c18.92195 0 36.40651 13.63838 45.86747 35.77763 9.46097 22.13927 9.46097 49.41598 0 71.55525-9.46096 22.13925-26.94552 35.77763-45.86747 35.77763" style="fill:#fff;stroke-width:12.7;stroke:#000"/>
 <path d="m176.12363 172.12262h25.60985c11.64614 0 22.40759 8.3942 28.23066 22.02053 5.82307 13.62636 5.82307 30.41471 0 44.04107-5.82307 13.62633-16.58452 22.02053-28.23066 22.02053h-25.60985m62.64861-44.04106h131.12651" style="fill:none;stroke-width:12.7;stroke:#000"/>
 <path d="m209.16542 216.16369a15.87047 15.87047 0 0 1-15.87047 15.87047 15.87047 15.87047 0 0 1-15.87047-15.87047 15.87047 15.87047 0 0 1 15.87047-15.87047 15.87047 15.87047 0 0 1 15.87047 15.87047zm-146.7368 0h131.12651" style="stroke-width:12.7;stroke:#000"/>
</svg>
