<svg width="432.32736" height="432.32736" version="1.1" viewBox="0 0 432.32736 432.32735" xmlns="http://www.w3.org/2000/svg">
 <path d="m159.56097 248.84199s3.69812 2.62989 9.19239 2.47488c4.08113-.11514 8.48528-3.53554 8.66206-6.36396-5.00122-38.41847-14.09687-77.27667-18.22056-115.66374m8.43672 163.9271 96.125 42.25m18.75-84.75s-10.69241 5.55035-16.34926 6.61101-10.96016-1.06066-10.96016-1.06066m-12.94058 119.44965c0-10.375 1.25-18.375 4.125-24.5s9-16 9-16 11.125.75 15.125.625 10.25-3.5 11.5-5.25.875-9.625-1.375-18.875-5.5-29.25-3.75-38 8-19.25 8-19.25l-2.375-3.75 2.375-3.75-13.42096-12.26641s14.84924-7.07107 19.09188-11.31371 12.72793-17.67767 12.37437-22.98097c-.35355-5.3033-25.45584-14.14214-48.08326-32.17336s-36.06244-38.53732-38.53732-44.90128c-2.47487-6.36396 3.88909-16.61701 1.41422-21.56676-2.47488-4.949749-21.21321-30.405599-29.34494-35.708899-8.13172-5.3033-42.4264-2.82843-50.91168 0-3.11297 1.30395-3.73118 6.09236-3.35876 14.84924.37564 8.83262 2.54707 35.585179 3.02645 40.562149 4.28346 44.47104 18.35322 93.56365 21 132.5.25 5.75-3.25 44.75-5.75 47.75s-13.89171 27.69761-17.25 37c-4.34912 12.04696-5.71614 28.25779-5.75 37" style="fill:#fff;stroke-width:12.7;stroke:#000"/>
 <path d="m302.28875 199.90463c-14.01067 1.70762-41.8482 18.62889-55.31189 20.40264-2.66164.88365-3.03334.73811-1.5523 2.56153 2.69055 3.3065 13.42331 11.57393 17.59765 10.81419 20.16212-3.66959 26.55518-8.96 26.55518-8.96z"/>
 <path d="m215.25658 106.46627c-4.125-3-3.9986-5.98513-12.875-5.375-9.39358.64568-27.08748 31.43166-25.67327 33.90653 1.41422 2.47488 18.38478 2.47488 23.33453 2.47488 4.94974 0 15.9099-13.08148 15.9099-13.08148z"/>
</svg>
