<svg width="432.32736" height="432.32736" version="1.1" viewBox="0 0 432.32736 432.32735" xmlns="http://www.w3.org/2000/svg">
 <rect x="57.250309" y="105.13802" width="317.94531" height="222.05132"/>
 <path d="m53.648607 153.20298h22.779566c2.200463 0 3.971953 4.07196 3.971953 9.12995v107.66151c0 5.05799-1.77149 9.12995-3.971953 9.12995h-22.899697m325.18546 0h-58.089c-2.20047 0-3.97195-4.07196-3.97195-9.12995v-107.66151c0-5.05799 1.77148-9.12995 3.97195-9.12995h58.17395m-165.17061 0h76.79317c2.20046 0 3.97195 4.07196 3.97195 9.12995v107.66151c0 5.05799-1.77149 9.12995-3.97195 9.12995h-76.79317c-2.20047 0-3.97195-4.07196-3.97195-9.12995v-107.66151c0-5.05799 1.77148-9.12995 3.97195-9.12995zm-106.99664 0h76.79317c2.20046 0 3.97195 4.07196 3.97195 9.12995v107.66151c0 5.05799-1.77149 9.12995-3.97195 9.12995h-76.79317c-2.20046 0-3.97195-4.07196-3.97195-9.12995v-107.66151c0-5.05799 1.77149-9.12995 3.97195-9.12995zm-19.798663-32.44099h10.511527c.05324 0 .0961.0429.0961.0961v14.67989c0 .0532-.04286.0961-.0961.0961h-10.511527c-.05324 0-.09611-.0429-.09611-.0961v-14.67988c0-.0532.04286-.0961.09611-.0961zm30.511833 0h10.51152c.0533 0 .0961.0429.0961.0961v14.67989c0 .0532-.0429.0961-.0961.0961h-10.51152c-.0532 0-.0961-.0429-.0961-.0961v-14.67988c0-.0532.0429-.0961.0961-.0961zm30.51181 0h10.51153c.0532 0 .0961.0429.0961.0961v14.67989c0 .0532-.0429.0961-.0961.0961h-10.51153c-.0532 0-.0961-.0429-.0961-.0961v-14.67988c0-.0532.0429-.0961.0961-.0961zm30.51182 0h10.51153c.0532 0 .0961.0429.0961.0961v14.67989c0 .0532-.0429.0961-.0961.0961h-10.51153c-.0532 0-.0961-.0429-.0961-.0961v-14.67988c0-.0532.0429-.0961.0961-.0961zm30.51183 0h10.51153c.0532 0 .0961.0429.0961.0961v14.67989c0 .0532-.0429.0961-.0961.0961h-10.51153c-.0532 0-.0961-.0429-.0961-.0961v-14.67988c0-.0532.0429-.0961.0961-.0961zm30.5118 0h10.51154c.0532 0 .0961.0429.0961.0961v14.67989c0 .0532-.0429.0961-.0961.0961h-10.51154c-.0532 0-.0961-.0429-.0961-.0961v-14.67988c0-.0532.0429-.0961.0961-.0961zm30.51183 0h10.51153c.0532 0 .0961.0429.0961.0961v14.67989c0 .0532-.0429.0961-.0961.0961h-10.51153c-.0532 0-.0961-.0429-.0961-.0961v-14.67988c0-.0532.0429-.0961.0961-.0961zm30.51182 0h10.51154c.0532 0 .0961.0429.0961.0961v14.67989c0 .0532-.0429.0961-.0961.0961h-10.51154c-.0532 0-.0961-.0429-.0961-.0961v-14.67988c0-.0532.0429-.0961.0961-.0961zm30.51183 0h10.51153c.0532 0 .0961.0429.0961.0961v14.67989c0 .0532-.0429.0961-.0961.0961h-10.51153c-.0532 0-.0961-.0429-.0961-.0961v-14.67988c0-.0532.0429-.0961.0961-.0961zm30.51182 0h10.51154c.0532 0 .0961.0429.0961.0961v14.67989c0 .0532-.0429.0961-.0961.0961h-10.51154c-.0532 0-.0961-.0429-.0961-.0961v-14.67988c0-.0532.0429-.0961.0961-.0961zm-305.11822 0h10.511529c.05324 0 .0961.0429.0961.0961v14.67989c0 .0532-.04286.0961-.0961.0961h-10.511529c-.05324 0-.0961-.0429-.0961-.0961v-14.67988c0-.0532.04286-.0961.0961-.0961zm31.109536 175.93129h10.511528c.05324 0 .09611.0429.09611.0961v14.67988c0 .0532-.04286.0961-.09611.0961h-10.511528c-.05324 0-.0961-.0429-.0961-.0961v-14.67988c0-.0533.04286-.0961.0961-.0961zm30.511829 0h10.51153c.0532 0 .0961.0429.0961.0961v14.67988c0 .0532-.0429.0961-.0961.0961h-10.51153c-.0532 0-.0961-.0429-.0961-.0961v-14.67988c0-.0533.0429-.0961.0961-.0961zm30.51181 0h10.51154c.0532 0 .0961.0429.0961.0961v14.67988c0 .0532-.0429.0961-.0961.0961h-10.51154c-.0532 0-.0961-.0429-.0961-.0961v-14.67988c0-.0533.0429-.0961.0961-.0961zm30.51183 0h10.51153c.0532 0 .0961.0429.0961.0961v14.67988c0 .0532-.0429.0961-.0961.0961h-10.51153c-.0532 0-.0961-.0429-.0961-.0961v-14.67988c0-.0533.0429-.0961.0961-.0961zm30.51182 0h10.51154c.0532 0 .0961.0429.0961.0961v14.67988c0 .0532-.0429.0961-.0961.0961h-10.51154c-.0532 0-.0961-.0429-.0961-.0961v-14.67988c0-.0533.0429-.0961.0961-.0961zm30.5118 0h10.51153c.0532 0 .0961.0429.0961.0961v14.67988c0 .0532-.0429.0961-.0961.0961h-10.51153c-.0532 0-.0961-.0429-.0961-.0961v-14.67988c0-.0533.0429-.0961.0961-.0961zm30.51184 0h10.51153c.0532 0 .0961.0429.0961.0961v14.67988c0 .0532-.0429.0961-.0961.0961h-10.51153c-.0532 0-.0961-.0429-.0961-.0961v-14.67988c0-.0533.0429-.0961.0961-.0961zm30.51182 0h10.51153c.0532 0 .0961.0429.0961.0961v14.67988c0 .0532-.0429.0961-.0961.0961h-10.51153c-.0532 0-.0961-.0429-.0961-.0961v-14.67988c0-.0533.0429-.0961.0961-.0961zm30.51183 0h10.51153c.0532 0 .0961.0429.0961.0961v14.67988c0 .0532-.0429.0961-.0961.0961h-10.51153c-.0532 0-.0961-.0429-.0961-.0961v-14.67988c0-.0533.0429-.0961.0961-.0961zm30.51182 0h10.51153c.0532 0 .0961.0429.0961.0961v14.67988c0 .0532-.0429.0961-.0961.0961h-10.51153c-.0532 0-.0961-.0429-.0961-.0961v-14.67988c0-.0533.0429-.0961.0961-.0961zm-305.11822 0h10.511527c.05324 0 .09611.0429.09611.0961v14.67988c0 .0532-.04286.0961-.09611.0961h-10.511527c-.05324 0-.09611-.0429-.09611-.0961v-14.67988c0-.0533.04286-.0961.09611-.0961z" style="fill:#fff"/>
</svg>
