<svg width="432.32736" height="432.32736" version="1.1" viewBox="0 0 432.32736 432.32735" xmlns="http://www.w3.org/2000/svg">
 <circle cx="216.16368" cy="216.16368" r="128.99782" style="fill:#fff;stroke-width:12.7;stroke:#000"/>
 <path d="m251.2967 233.36543 7.24025-1.05049q.51434 7.2221 2.37386 11.88364 1.89908 4.59588 5.8555 7.48473 3.95642 2.82318 8.90195 2.82318 4.39163 0 7.75459-2.16664 3.36295-2.16662 4.98509-5.90898 1.66169-3.80802 1.66169-8.27259 0-4.53023-1.58257-7.87865-1.58257-3.41409-5.22247-5.71203-2.33429-1.51007-10.32626-4.66154-7.99197-3.21711-11.19667-6.0403-4.15425-3.61105-6.21159-8.92915-2.01777-5.38374-2.01777-12.01495 0-7.28774 2.49254-13.59068 2.49255-6.36857 7.27982-9.65135 4.78727-3.28277 10.64278-3.28277 6.44896 0 11.35493 3.47974 4.94552 3.41408 7.59632 10.11094 2.65081 6.69685 2.84862 15.16641l-7.35894.91917q-.59346-9.1261-4.03554-13.78764-3.40253-4.66153-10.08888-4.66153-6.9633 0-10.16801 4.26759-3.16513 4.20195-3.16513 10.1766 0 5.18679 2.25516 8.53522 2.2156 3.34842 11.55275 6.89381 9.37672 3.47975 12.85837 6.10597 5.06422 3.87367 7.47764 9.84832 2.41341 5.90899 2.41341 13.65634 0 7.68168-2.6508 14.50985-2.6508 6.76251-7.63589 10.57053-4.94553 3.74237-11.15712 3.74237-7.87327 0-13.21444-3.80802-5.3016-3.80802-8.34805-11.42405-3.00688-7.6817-3.16514-17.33305zm-51.5126 30.92373v-96.25091h21.87901q5.77638 0 8.82282.91917 4.27294 1.1818 7.16113 4.53023 2.88818 3.28277 4.629 9.25742 1.78039 5.97464 1.78039 13.13109 0 12.27757-4.70814 20.81279-4.70813 8.46955-17.01261 8.46955h-14.87614v39.13066zm7.67546-50.48906h14.99483q7.43808 0 10.56365-4.59588t3.12557-12.93412q0-6.0403-1.85952-10.30791-1.81994-4.33326-4.82683-5.71202-1.93864-.85353-7.16112-.85353h-14.83658zm-43.52064 12.73716v-11.29273l24.56938-.0657v35.71658q-5.65769 7.48471-11.67144 11.29273-6.01376 3.74237-12.34403 3.74237-8.54588 0-15.54874-6.04031-6.9633-6.10596-10.52408-17.59566-3.56078-11.48971-3.56078-25.67129 0-14.05027 3.52121-26.19653 3.56078-12.21191 10.20757-18.12091 6.64679-5.90899 15.31135-5.90899 6.29071 0 11.35493 3.41409 5.10378 3.34842 7.99197 9.38873 2.88819 6.0403 4.39163 15.75731l-6.92374 3.15146q-1.30562-7.35341-3.24426-11.55536-1.93865-4.20195-5.53899-6.69687-3.60035-2.56056-7.99198-2.56056-5.26203 0-9.09976 2.69188-3.83774 2.62622-6.21159 6.95948-2.33429 4.33326-3.6399 9.52005-2.2156 8.92914-2.2156 19.36836 0 12.86847 2.65081 21.53498 2.69036 8.66653 7.79414 12.86848 5.10379 4.20195 10.8406 4.20195 4.98509 0 9.7328-3.15146 4.7477-3.21712 7.20068-6.82817v-17.92395z"/>
 <path d="m314.32381 216.16014h62.68752m-321.6953 0h62.687519m98.16013-98.15659v-62.687521m0 321.6953v-62.68752" style="fill:none;stroke-width:12.7;stroke:#000"/>
</svg>
