<svg width="432.32736" height="432.32736" version="1.1" viewBox="0 0 432.32736 432.32735" xmlns="http://www.w3.org/2000/svg">
 <path d="m216.16368 79.426387c-.0728 0-.1452.02893-.20099.08472l-42.12141 42.119733-79.943968 79.94398c-.11157.11157-.11157.29206 0 .40364l42.121408 42.11974c.11157.11158.29041.11158.40198 0l49.67429-49.67263v92.86045c0 .15779.12626.28571.28405.28571h59.56762c.15779 0 .28571-.12792.28571-.28571v-92.86045l49.67429 49.67263c.11157.11158.29041.11158.40198 0l42.12141-42.11974c.11157-.11158.11157-.29207 0-.40364l-122.06538-122.06372c-.0558-.05578-.12818-.08472-.20099-.08472zm-120.79095 221.75663h241.58126c.0471 0 .085.0379.085.0851v51.54786c0 .0471-.0379.085-.085.085h-241.58126c-.04712 0-.08505-.0379-.08505-.085v-51.54786c0-.0471.03793-.0851.08505-.0851z" style="stroke:#000"/>
</svg>
