<svg width="295.53" height="546.18" version="1.1" viewBox="0 0 295.53 546.17" xmlns="http://www.w3.org/2000/svg">
 <path d="m68.529 509.02c-3.336-55.223-5.707-109.65-40.236-148.52-8.869-16.739-17.42-39.537-21.159-61.492 34.569-21.716 75.279-37.667 107.03-50.266v-30.948c-11.43-15.971-17.848-25.176-26.553-38.04-4.783-22.751-9.806-42.488-15.168-66.312-5.721-25.421 0.117-51.746 15.43-74.859 22.465-33.609 59.889-32.079 59.889-32.079s37.424-1.53 59.889 32.079c15.313 23.113 21.151 49.438 15.43 74.859-5.362 23.824-10.385 43.561-15.168 66.312-8.7048 12.864-15.123 22.069-26.553 38.04v30.948c31.751 12.599 72.461 28.55 107.03 50.266-3.7391 21.955-12.29 44.753-21.159 61.492-34.529 38.872-36.9 93.297-40.236 148.52-17.575 20.192-40.408 29.587-79.233 30.651-38.825-1.064-61.658-10.459-79.233-30.651z" style="fill:#fff;stroke-width:13;stroke:#000"/>
</svg>
